<?xml version="1.0" standalone="no"?>
<!DOCTYPE svg PUBLIC "-//W3C//DTD SVG 20010904//EN"
 "http://www.w3.org/TR/2001/REC-SVG-20010904/DTD/svg10.dtd">
<svg version="1.0" xmlns="http://www.w3.org/2000/svg"
 width="920.000000pt" height="1302.000000pt" viewBox="0 0 920.000000 1302.000000"
 preserveAspectRatio="xMidYMid meet">

<g transform="translate(0.000000,1302.000000) scale(0.100000,-0.100000)"
fill="#ffffff" stroke="none">
<path d="M4854 10452 c2 -4 -21 -8 -52 -8 -32 0 -66 -4 -77 -8 -17 -7 -17 -6
-5 4 13 10 12 11 -3 6 -10 -3 -23 -6 -28 -6 -6 0 -7 -5 -4 -10 8 -12 -18 -40
-37 -40 -19 0 -69 -35 -62 -43 4 -3 -5 -20 -20 -37 -14 -17 -26 -37 -26 -43 0
-7 -12 -23 -25 -36 -14 -13 -23 -26 -20 -29 2 -3 -3 -10 -11 -17 -17 -12 -27
-114 -14 -135 4 -6 4 -29 0 -51 -4 -21 -5 -51 -2 -66 l6 -28 7 25 c5 16 7 0 8
-47 1 -39 -3 -74 -8 -77 -4 -3 -6 -16 -4 -30 3 -13 0 -33 -6 -45 -7 -12 -8
-21 -2 -21 5 0 10 -8 10 -17 3 -62 8 -77 46 -119 36 -41 64 -55 113 -57 6 0
12 -3 12 -7 0 -10 47 -30 73 -31 14 -1 9 -5 -15 -11 -21 -6 -38 -16 -38 -23 0
-12 -95 -32 -111 -23 -13 7 -72 -65 -74 -91 -1 -15 -5 -32 -8 -38 -14 -22 2
-205 23 -260 11 -30 23 -72 25 -93 6 -48 37 -121 59 -139 9 -7 16 -20 16 -27
0 -8 5 -14 11 -14 6 0 9 -7 5 -15 -3 -8 0 -14 7 -12 7 1 11 -6 9 -15 -2 -10 2
-18 8 -18 6 0 14 -8 17 -17 8 -23 50 -63 57 -55 3 3 6 0 6 -6 0 -7 5 -12 12
-12 6 0 26 -11 45 -26 18 -14 33 -22 33 -19 0 4 7 -1 16 -9 8 -9 24 -16 35
-16 10 0 19 -5 19 -11 0 -6 -6 -9 -14 -6 -10 4 -14 -4 -14 -31 0 -20 -5 -38
-11 -40 -18 -6 -13 -37 9 -57 16 -14 17 -21 8 -32 -9 -11 -9 -16 1 -23 8 -4
11 -16 7 -28 -4 -12 -2 -23 5 -28 8 -5 10 -3 4 7 -5 8 1 6 13 -5 12 -10 28
-16 37 -13 9 4 15 1 15 -7 0 -8 -5 -16 -12 -18 -7 -3 -9 -12 -5 -22 6 -15 9
-16 22 -3 10 10 31 14 65 13 33 -2 50 2 50 10 0 6 10 12 23 12 l24 0 -24 -24
c-13 -13 -33 -24 -43 -24 -11 0 -34 -6 -52 -14 -68 -28 -96 -34 -107 -23 -8 8
-11 7 -11 -4 -1 -10 -5 -9 -15 5 -14 18 -16 18 -33 2 -12 -10 -39 -17 -68 -19
-43 -2 -50 -5 -61 -30 -7 -16 -9 -37 -5 -50 5 -12 7 -33 5 -47 -5 -53 -5 -98
2 -118 4 -13 2 -22 -4 -22 -6 0 -11 -4 -11 -10 0 -5 6 -7 14 -4 7 3 16 -2 20
-11 3 -9 0 -18 -8 -21 -9 -3 -13 -15 -10 -30 2 -13 0 -24 -5 -24 -6 0 -8 -7
-5 -15 4 -8 10 -12 15 -9 5 3 9 0 9 -5 0 -6 -4 -11 -9 -11 -5 0 -12 -7 -15
-16 -5 -12 -2 -15 10 -10 12 4 15 2 11 -9 -4 -8 -2 -17 4 -21 6 -3 8 -12 5
-20 -3 -8 -1 -14 4 -14 6 0 10 -9 10 -21 0 -13 -4 -18 -12 -13 -9 5 -8 2 1 -9
8 -10 21 -15 32 -12 9 3 21 0 25 -6 5 -9 2 -10 -12 -5 -16 6 -16 4 4 -14 12
-11 22 -23 22 -25 0 -12 -21 -3 -40 17 -11 12 -23 18 -27 15 -3 -4 -1 -7 6 -7
7 0 11 -6 8 -14 -4 -9 5 -19 24 -27 20 -8 27 -15 20 -22 -10 -10 -8 -22 16
-75 8 -18 12 -40 9 -48 -7 -18 3 -46 14 -39 5 3 13 -2 18 -11 6 -11 22 -17 41
-17 17 0 31 -5 32 -11 0 -6 4 -2 9 9 7 19 9 18 19 -8 6 -16 11 -35 11 -42 0
-9 6 -12 18 -8 14 5 14 3 -3 -11 -20 -17 -20 -17 3 -13 12 3 22 1 22 -4 0 -5
-5 -9 -11 -9 -5 0 -7 -4 -4 -10 9 -14 -8 -12 -24 3 -11 10 -12 9 -6 -3 4 -8
15 -23 23 -32 7 -9 11 -21 8 -27 -4 -5 -2 -12 4 -16 5 -3 10 -1 10 4 0 6 5 11
10 11 7 0 7 -7 0 -21 -11 -19 -10 -20 9 -10 17 9 25 7 43 -11 12 -12 31 -24
42 -25 25 -4 30 -9 21 -23 -4 -6 -13 -9 -21 -6 -9 4 -14 -2 -14 -15 0 -11 -7
-22 -15 -25 -8 -4 -15 -14 -15 -23 0 -14 2 -14 10 -1 7 12 10 12 10 1 0 -9 8
-11 24 -7 14 3 27 2 30 -2 7 -12 -39 -36 -52 -28 -6 3 -12 2 -14 -3 -4 -12
-48 -22 -104 -24 -29 -1 -40 -6 -37 -14 3 -7 1 -13 -5 -13 -5 0 -12 6 -15 14
-3 8 -16 12 -31 11 -14 -2 -26 1 -26 6 0 5 -4 9 -10 9 -5 0 -10 -7 -10 -15 0
-11 -5 -12 -25 -5 -22 8 -25 7 -31 -25 -3 -19 -10 -32 -15 -29 -13 7 -11 -18
2 -36 9 -13 10 -12 5 3 -7 21 10 23 18 2 3 -8 1 -15 -5 -15 -6 0 -8 -7 -5 -16
5 -14 4 -15 -8 -5 -9 7 -18 22 -22 33 -4 15 -8 17 -14 8 -6 -9 -11 -7 -20 9
-11 22 -12 22 -27 4 -14 -17 -14 -17 -10 5 3 14 0 22 -8 22 -7 0 -16 6 -18 13
-3 6 -6 -2 -6 -20 -1 -17 -4 -39 -7 -48 -10 -26 -24 3 -17 36 3 15 0 30 -6 33
-6 4 -11 2 -11 -5 0 -7 -18 7 -41 29 -27 28 -49 42 -67 42 -41 0 -105 41 -124
79 -9 18 -26 43 -37 55 -18 19 -47 119 -70 245 -4 23 -12 46 -17 50 -10 7 -34
91 -34 119 0 9 -7 30 -15 46 -8 15 -15 35 -15 44 0 8 -7 24 -17 34 -9 10 -11
18 -5 18 14 0 -4 57 -26 82 -8 10 -19 42 -24 70 -9 51 -14 77 -18 88 -1 3 -2
8 -1 13 0 4 -3 7 -7 7 -4 0 -8 8 -9 19 -1 10 -13 31 -27 46 -14 15 -26 33 -26
40 0 6 -11 18 -25 25 -19 10 -22 17 -15 31 14 26 12 55 -4 69 -8 6 -12 18 -9
26 3 8 0 14 -6 14 -14 0 -15 37 -1 45 8 5 8 34 0 55 -2 3 -2 8 -1 12 0 5 -7
16 -16 26 -40 42 -53 63 -53 85 0 12 -5 40 -12 62 -15 53 -15 52 -17 74 0 11
-8 27 -17 35 -8 9 -22 44 -30 78 -9 35 -27 88 -41 118 -13 30 -27 75 -29 100
-2 25 -11 50 -19 56 -8 6 -15 20 -15 30 -1 15 -4 13 -16 -8 -8 -16 -22 -28
-31 -28 -14 0 -13 3 4 23 11 12 28 37 38 56 16 33 16 35 0 47 -10 7 -15 19
-12 27 3 8 1 20 -3 27 -5 7 -4 24 1 38 7 17 5 31 -8 53 -10 16 -21 29 -25 29
-4 0 -8 17 -8 38 0 21 -7 47 -15 58 -8 12 -13 30 -10 42 2 11 -3 31 -10 46
-13 24 -13 75 0 96 3 5 1 11 -5 15 -6 4 -7 11 -4 17 4 6 2 8 -3 5 -14 -9 -23
16 -23 62 0 37 -31 81 -57 81 -6 0 -9 9 -6 20 4 13 0 20 -10 20 -8 0 -20 6
-26 14 -9 11 -8 15 4 20 11 4 14 2 9 -6 -4 -7 -3 -8 5 -4 8 6 9 12 2 20 -6 7
-9 15 -6 18 3 3 -20 22 -51 42 -31 21 -53 32 -48 25 5 -9 2 -10 -12 -5 -10 5
-23 8 -29 7 -5 -1 -21 -3 -36 -4 -14 -2 -31 -7 -39 -12 -9 -5 -15 -4 -18 3 -4
14 -29 -7 -34 -29 -2 -7 -16 -21 -33 -30 -23 -12 -29 -22 -27 -40 5 -32 8 -34
29 -18 10 7 7 1 -6 -14 -14 -15 -22 -30 -18 -33 4 -4 -12 -24 -34 -45 -23 -22
-36 -39 -30 -39 7 0 9 -5 6 -10 -4 -6 -11 -8 -16 -4 -7 4 -8 -7 -5 -31 4 -21
2 -43 -4 -50 -5 -7 -8 -26 -6 -43 2 -18 0 -32 -3 -32 -12 0 -15 -42 -15 -170
0 -79 5 -133 12 -147 7 -13 8 -23 3 -23 -9 0 -6 -28 7 -60 3 -8 6 -17 6 -20 1
-3 9 -26 19 -52 29 -75 75 -93 225 -90 41 0 60 -3 56 -10 -4 -6 0 -15 7 -20
10 -7 6 -8 -13 -4 -16 4 -28 2 -28 -4 0 -5 10 -10 23 -10 17 0 13 -5 -18 -20
-22 -11 -30 -18 -17 -16 12 2 22 1 22 -4 0 -12 -45 -21 -48 -10 -2 6 -10 10
-18 10 -7 0 -11 -6 -8 -14 3 -7 -2 -16 -11 -20 -9 -3 -13 -2 -10 3 3 5 1 12
-5 16 -5 3 -10 -1 -10 -10 0 -9 -7 -23 -15 -31 -8 -8 -12 -21 -9 -29 4 -8 1
-15 -6 -15 -6 0 -9 -4 -6 -9 4 -5 2 -11 -3 -13 -17 -5 -20 -110 -5 -138 23
-43 54 -133 48 -142 -3 -5 6 -21 20 -35 15 -14 29 -37 32 -50 4 -12 10 -23 14
-23 8 0 24 -37 35 -80 5 -19 4 -22 -4 -10 -24 34 -10 -29 20 -88 35 -72 46
-75 148 -43 34 10 61 16 61 12 0 -8 -91 -41 -113 -41 -22 0 -30 -56 -12 -84
14 -20 37 -31 112 -51 16 -4 20 -11 16 -23 -15 -39 -83 -82 -83 -52 0 6 -5 10
-11 10 -5 0 -8 -4 -5 -9 9 -15 -5 -42 -18 -34 -6 4 -6 0 2 -9 7 -9 9 -19 4
-22 -5 -3 -6 -23 -2 -47 9 -49 3 -79 -16 -79 -8 0 -14 -4 -14 -10 0 -5 6 -10
13 -10 8 0 7 -3 -3 -10 -12 -8 -12 -11 2 -27 9 -10 20 -30 23 -45 4 -16 11
-28 16 -28 5 0 9 -6 9 -14 0 -9 7 -12 20 -9 22 6 28 -12 8 -20 -8 -4 -5 -8 9
-12 13 -4 20 -12 16 -21 -3 -8 -10 -11 -17 -7 -10 6 10 -21 42 -55 6 -7 12
-17 12 -22 0 -5 7 -7 15 -4 11 5 13 2 8 -12 -4 -11 -3 -15 4 -11 6 4 13 2 15
-5 3 -7 15 -13 28 -13 15 0 24 -7 26 -18 4 -26 14 -34 14 -11 0 14 3 15 9 6 4
-7 17 -14 28 -15 14 -1 19 -6 15 -17 -5 -13 -3 -13 11 -2 9 8 21 11 28 7 6 -4
15 -2 19 6 6 9 11 5 15 -14 8 -31 22 -35 28 -9 2 11 7 6 13 -17 11 -38 34 -54
34 -24 0 15 2 15 9 3 6 -8 8 -17 6 -20 -2 -4 1 -7 8 -7 7 0 19 -3 27 -5 8 -3
12 -3 8 -1 -4 2 -4 11 -1 20 5 12 10 7 22 -17 9 -19 23 -36 31 -38 13 -5 13
-3 2 11 -16 18 -8 37 14 37 8 0 12 -5 9 -10 -4 -6 -12 -7 -18 -4 -7 4 -1 -5
12 -19 14 -15 27 -27 29 -27 3 0 -3 9 -13 20 -10 11 -13 20 -8 20 6 0 16 -7
23 -15 14 -17 35 -21 24 -4 -3 6 5 3 20 -6 14 -10 26 -14 26 -9 0 4 16 -7 35
-26 38 -37 47 -64 18 -53 -16 6 -16 4 1 -15 17 -20 17 -22 2 -28 -10 -4 -15
-13 -12 -20 3 -8 1 -14 -4 -14 -16 0 -11 -30 6 -37 10 -3 12 -8 5 -12 -7 -4 4
-35 29 -84 22 -42 37 -77 34 -77 -4 0 -1 -7 6 -15 7 -9 10 -18 7 -21 -9 -9
-27 5 -27 22 0 8 -5 14 -11 14 -7 0 -9 -10 -5 -25 5 -19 2 -25 -9 -25 -13 0
-14 -4 -5 -20 7 -14 7 -20 0 -20 -18 0 -11 -20 8 -21 11 0 12 -2 4 -6 -10 -4
-10 -8 -1 -19 8 -9 8 -14 1 -14 -6 0 -14 5 -17 10 -20 32 -27 -7 -10 -55 4
-11 -5 0 -20 25 -14 25 -30 46 -35 48 -5 2 -6 11 -3 20 4 14 3 14 -5 2 -6 -8
-8 -18 -5 -23 9 -14 -7 -58 -18 -51 -8 4 -7 10 2 16 12 8 11 9 0 6 -8 -2 -20
-20 -26 -39 -15 -42 -2 -69 29 -61 12 3 17 1 13 -4 -4 -4 3 -14 15 -22 l23
-13 -25 5 c-14 3 -32 1 -40 -4 -12 -8 -11 -10 6 -10 11 0 25 -5 31 -11 7 -7
13 -7 17 0 4 5 13 8 21 4 8 -3 15 0 15 6 0 6 6 8 13 5 24 -9 15 -31 -10 -26
-14 3 -34 0 -46 -6 -12 -6 -29 -13 -37 -15 -9 -4 -6 -6 8 -6 12 -1 22 -5 22
-10 0 -5 15 -14 33 -21 17 -7 27 -14 20 -17 -8 -3 -3 -13 15 -30 22 -20 23
-24 7 -19 -13 4 -6 -7 20 -30 22 -20 30 -31 18 -25 -33 17 -41 13 -14 -9 32
-28 18 -25 -35 6 -24 14 -44 24 -44 21 0 -3 16 -15 36 -26 20 -12 34 -24 31
-27 -3 -4 -16 1 -29 10 -12 9 -27 16 -33 16 -5 0 7 -11 29 -24 25 -15 51 -22
72 -20 37 3 46 -10 14 -19 -20 -5 -20 -6 5 -31 14 -14 31 -26 38 -26 7 0 -1
11 -18 25 -16 13 -27 24 -24 25 3 0 24 -14 45 -32 22 -17 30 -28 19 -25 -11 4
1 -12 28 -38 27 -25 55 -45 63 -45 8 0 14 -6 14 -13 0 -7 14 -26 30 -42 17
-16 28 -35 26 -42 -3 -7 -2 -12 2 -11 4 1 19 -4 35 -10 24 -10 32 -22 28 -44
0 -5 5 -7 12 -5 6 1 11 -4 10 -10 -2 -7 0 -12 5 -11 13 3 61 -14 59 -21 -1 -3
8 -16 21 -29 12 -12 22 -17 22 -11 0 5 5 7 10 4 6 -4 7 -12 4 -18 -4 -7 -3 -9
1 -4 13 11 44 -23 38 -41 -4 -9 -2 -13 4 -9 14 9 35 -17 39 -46 7 -44 10 -55
22 -70 10 -12 10 -16 0 -20 -9 -4 -8 -6 3 -6 10 -1 40 -17 69 -36 29 -19 60
-35 70 -35 10 0 23 -7 30 -15 8 -10 24 -13 45 -11 20 3 42 -2 56 -12 21 -14
22 -14 16 1 -8 22 2 22 20 0 14 -17 14 -17 10 3 -4 20 -3 21 22 8 24 -13 26
-12 29 6 5 28 22 15 22 -17 0 -14 10 -42 22 -62 13 -20 23 -38 23 -41 0 -3 12
-19 28 -35 24 -26 27 -27 27 -10 1 15 6 11 24 -17 12 -21 25 -36 28 -33 3 3
20 -12 37 -33 17 -22 28 -42 24 -46 -3 -3 2 -6 13 -7 11 0 14 -3 6 -6 -20 -8
73 -96 95 -89 10 2 38 8 62 11 31 5 45 13 48 26 3 10 10 16 15 13 5 -3 7 -12
4 -19 -3 -8 5 -15 20 -18 16 -3 24 0 21 7 -3 6 5 23 16 36 19 24 19 20 1 -26
-5 -10 0 -17 15 -21 11 -3 21 -10 21 -15 0 -5 -4 -6 -10 -3 -5 3 -10 2 -10 -3
0 -5 -14 -12 -31 -16 -19 -4 -33 -13 -36 -26 -7 -25 -20 -26 -26 -2 -6 25 2
-118 8 -153 6 -31 10 -64 19 -147 2 -25 10 -57 17 -70 17 -32 80 -109 107
-131 23 -20 31 -62 10 -54 -7 2 -12 12 -11 21 0 10 -1 15 -4 13 -5 -6 -53 47
-97 106 -21 28 -33 36 -47 32 -14 -5 -19 -2 -19 14 0 23 -20 71 -30 71 -10 0
-30 -47 -30 -70 0 -10 -6 -25 -14 -32 -7 -8 -17 -30 -22 -49 -11 -46 -11 -179
0 -179 5 0 3 -6 -3 -14 -8 -10 -9 -16 -1 -21 5 -3 10 -18 10 -33 -1 -25 -2
-24 -20 13 -15 32 -19 60 -18 133 0 52 -3 97 -9 100 -5 4 -12 15 -16 24 -4 12
-2 15 9 11 9 -3 14 1 15 13 0 11 3 14 5 7 8 -18 43 22 59 66 11 33 11 47 -5
104 -11 38 -32 83 -49 104 -57 71 -73 88 -66 76 3 -7 1 -13 -4 -13 -6 0 -11 6
-11 13 0 17 -65 87 -108 116 l-32 22 -9 -23 c-7 -17 -10 -19 -10 -5 -1 9 -6
17 -12 17 -5 0 -7 5 -4 11 12 18 -4 59 -20 53 -8 -4 -15 -1 -15 5 0 6 -9 20
-20 31 -23 23 -105 29 -113 8 -3 -7 -6 -3 -6 9 -1 13 -4 22 -8 21 -14 -3 -57
20 -79 40 -12 12 -25 18 -29 14 -4 -4 -13 2 -21 12 -9 12 -14 15 -14 7 0 -8
-8 -20 -17 -27 -21 -16 -37 -18 -28 -4 3 6 -1 7 -9 4 -9 -3 -13 -11 -9 -18 4
-6 -1 -5 -10 3 -9 7 -14 18 -10 25 3 6 2 8 -2 3 -5 -4 -17 1 -28 10 -10 10
-22 17 -26 16 -3 -1 -5 6 -3 15 2 13 1 14 -6 3 -7 -10 -14 -11 -31 -2 -11 7
-21 17 -21 23 0 17 -54 73 -70 73 -22 0 -64 -41 -51 -50 6 -3 11 -15 11 -25 0
-10 5 -22 12 -26 8 -5 9 2 5 27 -5 23 -4 29 3 18 5 -8 11 -26 13 -40 4 -22 22
-72 32 -90 3 -4 0 -11 -6 -15 -7 -4 -10 -3 -7 2 3 5 0 15 -8 22 -27 25 -16
-15 14 -50 15 -18 34 -45 41 -60 8 -15 18 -25 22 -22 5 3 6 -1 3 -9 -5 -15 20
-47 37 -47 5 0 9 -9 9 -19 0 -11 12 -33 26 -50 l26 -31 -31 0 c-16 0 -33 -5
-37 -12 -4 -7 -3 -8 4 -4 8 5 12 0 12 -13 0 -12 4 -21 10 -21 5 0 7 -6 4 -14
-3 -7 5 -26 18 -42 27 -33 76 -149 103 -239 10 -33 20 -67 23 -75 5 -13 3 -13
-11 -1 -34 27 -28 2 9 -38 38 -43 76 -136 68 -168 -3 -10 8 -51 25 -90 16 -40
25 -73 19 -73 -7 0 -8 -13 -4 -38 4 -20 13 -93 21 -162 8 -69 18 -146 21 -171
4 -30 2 -49 -5 -53 -7 -5 -11 5 -11 29 0 44 -28 274 -36 295 -4 8 -10 40 -14
70 -8 52 -75 254 -98 295 -25 44 -62 130 -62 143 0 22 -110 274 -128 295 -9
10 -17 27 -19 38 -2 11 -10 33 -18 49 -8 16 -15 34 -15 40 0 16 -81 130 -92
130 -5 0 -7 8 -3 18 3 11 -3 29 -15 45 -11 14 -20 30 -20 36 0 6 -13 20 -30
32 -18 14 -32 35 -36 56 -4 18 -12 33 -20 33 -8 0 -14 5 -14 10 0 6 -9 10 -21
10 -13 0 -18 4 -13 12 5 8 2 9 -10 5 -9 -4 -15 -3 -12 2 3 5 -4 20 -15 35 -11
14 -15 26 -9 26 19 0 6 23 -19 32 -22 8 -22 7 -10 -9 13 -15 12 -16 -6 -9 -28
12 -57 9 -66 -6 -7 -10 -13 -10 -27 -1 -14 8 -32 8 -65 1 -44 -9 -65 -28 -32
-28 8 0 15 -7 15 -15 0 -19 10 -19 37 0 14 10 24 12 28 5 3 -5 -1 -10 -9 -10
-9 0 -16 -4 -16 -8 0 -5 15 -6 33 -4 l32 5 -19 -22 c-11 -11 -16 -24 -13 -28
4 -3 7 -1 7 5 0 6 7 9 15 6 11 -5 13 -10 5 -19 -20 -24 7 -26 55 -5 68 29 79
23 15 -8 -82 -41 -83 -41 -69 -58 10 -12 8 -13 -7 -8 -18 5 -18 5 -1 -9 10 -9
14 -18 9 -21 -16 -9 8 -74 27 -75 9 -1 41 -1 71 -2 47 -1 50 -2 25 -9 -16 -4
-47 -8 -68 -9 -23 -1 -36 -5 -32 -11 4 -6 11 -8 16 -4 5 3 8 0 7 -7 -4 -17
-68 -40 -93 -33 -19 5 -19 4 -1 -7 10 -6 36 -9 57 -6 22 3 37 1 34 -3 -3 -5
-27 -12 -53 -16 -26 -4 -59 -17 -75 -30 -28 -24 -53 -32 -43 -15 4 5 -12 12
-34 16 -31 5 -46 2 -69 -14 -16 -12 -34 -21 -39 -21 -6 0 -12 -5 -14 -12 -6
-18 -58 -17 -59 2 0 8 -3 10 -5 4 -3 -8 -16 -7 -46 3 -43 14 -181 16 -172 2 3
-5 -3 -6 -12 -2 -13 5 -15 3 -9 -8 7 -11 6 -12 -7 -2 -8 7 -18 10 -21 6 -4 -3
-19 -6 -34 -7 -16 -1 -27 -6 -26 -12 3 -16 -50 -5 -64 14 -8 10 -13 11 -13 4
0 -7 -7 -12 -15 -12 -19 0 -19 -11 1 -36 15 -18 15 -18 9 4 -4 13 -2 22 5 22
7 0 10 -13 8 -32 -2 -18 2 -33 7 -33 6 0 23 -13 39 -28 16 -15 31 -25 34 -22
3 2 -6 14 -19 26 -15 13 -10 11 13 -5 20 -14 40 -26 45 -26 4 0 1 5 -7 10 -13
8 -13 10 2 10 9 0 21 -6 25 -14 13 -21 45 -34 102 -42 28 -4 49 -9 46 -12 -7
-8 -71 -4 -115 7 -93 23 -94 23 -81 7 7 -9 18 -13 24 -9 6 3 7 1 3 -5 -4 -7 3
-16 17 -21 23 -9 46 -31 32 -31 -3 0 -60 27 -128 60 -76 38 -123 56 -126 49
-2 -7 -12 -2 -23 12 -14 17 -18 19 -14 6 3 -10 2 -16 -3 -13 -5 3 -14 0 -20
-8 -9 -11 -9 -15 1 -19 7 -3 -4 -6 -24 -6 -24 -1 -38 4 -38 12 0 8 -4 7 -10
-3 -8 -12 -10 -12 -11 5 0 20 -1 20 -8 1 -7 -19 -8 -18 -15 5 -7 20 -9 21 -13
6 -2 -9 -8 -15 -12 -13 -4 3 -12 -4 -19 -14 -10 -16 -7 -23 18 -47 39 -36 39
-50 0 -23 -17 12 -30 19 -30 16 0 -3 14 -28 30 -57 46 -77 29 -70 -28 11 -28
39 -52 68 -54 63 -2 -4 -3 -23 -3 -40 0 -21 -4 -33 -13 -33 -8 0 -10 -5 -6
-12 6 -10 5 -10 -8 0 -12 10 -18 9 -28 -3 -9 -10 -9 -15 -1 -15 6 0 11 -4 11
-10 0 -5 -7 -7 -15 -4 -12 5 -15 -2 -15 -35 0 -30 -3 -39 -14 -35 -9 4 -12 -2
-10 -18 2 -13 6 -39 9 -59 4 -27 1 -38 -10 -43 -9 -3 -20 -16 -25 -28 -8 -22
-9 -21 -9 7 -1 17 -10 44 -21 60 -22 33 -25 45 -11 45 5 0 11 -9 14 -20 3 -11
10 -20 16 -20 15 0 14 25 -3 39 -8 7 -11 22 -8 37 4 20 -1 31 -18 44 l-23 18
21 6 c12 4 22 11 22 15 0 4 -29 35 -65 68 -68 64 -75 73 -49 73 8 0 12 -5 9
-10 -3 -6 1 -13 11 -17 9 -3 29 -19 44 -35 23 -24 29 -26 34 -12 8 21 8 24 -5
24 -6 0 -27 16 -47 35 -25 24 -31 34 -17 29 15 -5 12 1 -10 20 -29 26 -29 27
-5 20 14 -4 31 -7 38 -7 6 0 12 -4 12 -9 0 -5 7 -2 16 7 13 12 14 19 4 30 -10
12 -10 15 1 15 8 0 2 8 -13 17 -34 21 -44 43 -20 43 12 0 10 4 -8 14 -18 9
-29 10 -39 2 -11 -8 -13 -8 -8 0 4 7 0 15 -9 18 -8 3 -13 2 -10 -3 3 -5 -2
-11 -12 -13 -25 -7 -24 -38 0 -65 l20 -21 -39 13 c-33 11 -38 11 -41 -1 -2 -8
2 -21 8 -29 7 -9 8 -15 2 -15 -5 0 -15 6 -21 14 -12 15 -64 19 -55 5 3 -5 15
-9 27 -9 17 0 19 -2 8 -9 -19 -12 -60 15 -58 39 1 10 6 18 11 17 6 -1 15 8 21
21 5 12 13 22 18 22 4 0 3 9 -3 20 -12 22 -1 27 18 8 8 -8 12 -8 12 -1 0 6 -7
16 -15 23 -8 7 -15 17 -15 23 0 5 8 3 18 -6 10 -10 27 -17 38 -16 10 0 13 3 7
6 -21 8 -14 25 7 18 26 -8 26 7 0 23 -21 13 -28 42 -10 42 6 0 10 5 10 10 0 6
-7 10 -15 10 -8 0 -15 7 -15 15 0 8 -10 20 -22 26 -19 9 -21 9 -10 -2 17 -18
15 -30 -3 -23 -8 4 -15 12 -15 20 0 7 -18 28 -40 45 -28 22 -40 40 -40 58 0
24 -1 24 -15 5 -9 -12 -14 -14 -15 -6 0 7 -3 11 -8 8 -4 -2 -12 7 -19 20 -9
19 -8 24 3 24 11 0 13 8 9 33 -6 31 -25 63 -25 40 0 -6 -6 -13 -13 -16 -10 -4
-13 2 -9 19 2 14 0 24 -7 24 -7 0 -9 4 -6 10 3 6 -1 7 -9 4 -9 -3 -13 -10 -10
-15 3 -5 -6 -4 -20 3 -14 6 -26 18 -26 27 -1 21 -28 56 -37 48 -4 -4 -1 -13 5
-19 7 -7 12 -18 12 -25 0 -8 -7 -6 -20 7 -11 11 -18 25 -16 32 1 7 1 9 -2 5
-2 -4 -11 -2 -20 5 -11 9 -9 1 6 -23 25 -41 27 -49 12 -49 -6 0 -17 17 -25 38
-9 21 -31 53 -50 71 l-34 32 -7 -27 -7 -28 -23 29 c-17 22 -20 32 -12 42 7 9
7 13 0 13 -6 0 -13 -4 -17 -10 -4 -6 -15 -6 -31 0 -39 15 -74 12 -74 -5 0 -13
-7 -15 -35 -9 -23 4 -35 2 -35 -5 0 -6 -7 -11 -15 -11 -9 0 -12 -6 -9 -15 4
-8 12 -15 19 -15 6 0 20 -9 30 -20 10 -11 22 -17 28 -13 6 3 7 1 3 -6 -8 -13
28 -51 48 -51 8 0 8 3 1 8 -11 7 -18 52 -9 52 6 0 35 -28 34 -32 -5 -13 24
-60 45 -74 14 -9 25 -24 25 -33 0 -10 -15 1 -39 29 -30 35 -42 42 -51 33 -10
-9 -8 -14 9 -25 11 -7 21 -17 21 -22 0 -5 7 -18 17 -28 12 -13 13 -18 3 -18
-8 0 4 -16 26 -35 21 -20 38 -40 37 -45 -2 -5 9 -17 25 -27 46 -28 91 -75 85
-88 -2 -8 4 -22 14 -33 10 -10 25 -28 34 -38 9 -10 25 -25 35 -32 10 -7 13
-10 7 -7 -27 13 -11 -14 27 -46 22 -19 40 -40 40 -46 0 -7 7 -13 16 -13 8 0
12 -4 9 -10 -3 -5 2 -10 12 -10 20 0 43 -18 43 -33 0 -5 -7 -6 -16 -3 -8 3
-12 2 -9 -4 3 -6 17 -7 31 -4 19 5 23 3 18 -10 -3 -9 -12 -16 -20 -16 -18 0
-17 -8 0 -42 8 -14 19 -42 25 -61 6 -19 24 -45 38 -58 15 -13 21 -16 14 -6 -8
9 -11 20 -7 24 3 3 6 1 6 -5 0 -7 7 -12 16 -12 12 0 15 -7 12 -25 -3 -14 -1
-25 3 -25 5 0 9 -7 9 -15 0 -8 -4 -15 -10 -15 -16 0 -9 -139 7 -148 7 -5 15
-18 17 -29 3 -12 9 -30 15 -41 6 -11 8 -22 5 -24 -2 -3 2 -11 11 -18 8 -7 15
-19 15 -27 0 -10 6 -12 21 -8 17 6 20 4 15 -13 -4 -11 0 -24 9 -32 12 -10 15
-10 15 4 0 19 16 22 22 4 2 -6 0 -29 -6 -50 -8 -30 -6 -49 8 -92 18 -53 88
-151 99 -139 3 3 9 -6 13 -21 3 -15 27 -41 55 -62 27 -20 47 -40 44 -44 -8
-12 45 -51 59 -43 7 5 4 9 -9 11 -11 2 -24 9 -30 14 -7 8 -4 9 8 4 10 -3 24
-6 31 -6 9 0 11 -17 8 -59 l-4 -60 62 -60 c34 -34 68 -61 75 -61 7 0 26 -15
42 -34 16 -19 56 -47 88 -61 49 -22 56 -28 40 -34 -16 -7 -15 -9 12 -14 17 -3
38 -14 48 -23 17 -17 17 -18 -1 -24 -17 -7 -17 -8 4 -14 12 -4 34 -18 50 -30
15 -13 34 -26 42 -30 8 -3 2 -4 -15 -1 -16 3 -52 8 -80 11 -28 3 -53 11 -58
20 -12 21 -26 17 -20 -6 3 -11 9 -20 13 -20 4 0 17 -9 30 -20 13 -11 29 -20
37 -20 8 0 24 -5 35 -11 16 -9 18 -13 8 -19 -9 -6 0 -11 26 -15 87 -15 119
-28 153 -62 19 -19 44 -39 56 -43 16 -7 14 -9 -15 -10 -36 -2 -34 -4 11 -14
17 -4 26 -12 25 -23 -1 -12 9 -19 37 -24 20 -3 40 -9 44 -13 12 -12 -12 -26
-50 -28 -41 -3 -48 -13 -15 -21 13 -4 26 -1 31 6 5 8 7 5 5 -8 -2 -14 3 -21
20 -23 30 -5 28 -21 -2 -19 -14 1 -25 -2 -24 -8 0 -5 4 -9 9 -7 5 1 12 -5 15
-13 4 -8 12 -15 20 -15 8 0 14 -7 14 -15 0 -8 8 -15 18 -15 11 0 27 -10 38
-21 10 -12 30 -26 44 -31 24 -10 24 -11 5 -18 -16 -7 -13 -9 15 -9 39 -1 55
-10 55 -29 0 -8 25 -27 55 -44 52 -28 60 -29 140 -25 74 4 82 3 65 -9 -39 -28
-27 -44 32 -44 30 0 64 5 75 11 33 18 79 29 72 18 -5 -9 24 -6 65 7 9 3 12 -2
8 -16 -6 -25 0 -25 41 0 25 16 37 18 47 10 9 -8 15 -8 20 0 3 5 17 10 31 10
13 0 24 4 24 8 0 5 14 8 30 7 17 -1 41 3 53 10 12 6 43 17 70 24 26 8 47 18
47 22 0 5 10 9 22 9 22 0 22 0 3 -14 -11 -7 -29 -15 -39 -17 -11 -2 -21 -10
-24 -17 -3 -9 3 -11 22 -6 15 3 26 2 26 -4 0 -5 -12 -13 -27 -17 -21 -5 -24
-8 -12 -15 8 -6 15 -6 17 0 5 13 33 12 52 -1 12 -9 11 -10 -8 -6 -12 3 -20 1
-16 -4 3 -5 20 -9 37 -9 24 0 28 -3 17 -10 -12 -8 -10 -10 8 -10 13 0 20 4 17
10 -3 6 -2 10 4 10 5 0 12 -6 14 -12 4 -10 8 -10 15 0 8 12 13 12 31 0 12 -7
20 -17 17 -23 -2 -5 9 -10 25 -11 17 -1 26 3 22 9 -3 6 -1 7 5 3 6 -4 9 -13 6
-20 -3 -8 0 -17 7 -22 8 -4 10 -3 5 4 -13 21 10 13 38 -13 15 -14 32 -25 37
-25 6 0 24 -7 41 -16 20 -10 28 -11 23 -3 -6 9 -2 11 14 6 19 -5 20 -3 9 10
-12 14 -11 15 9 5 26 -14 63 -5 41 10 -9 7 -6 8 10 5 19 -5 22 -2 17 11 -5 14
-4 15 6 5 18 -18 34 -16 20 1 -11 12 -7 14 21 10 37 -4 71 3 64 15 -10 16 56
3 72 -14 16 -18 16 -18 -13 -1 l-30 17 23 -20 c20 -17 27 -18 43 -8 16 10 21
9 29 -3 8 -12 10 -12 10 -1 0 9 8 12 27 8 33 -6 55 1 46 16 -3 6 4 3 18 -6 13
-9 28 -17 33 -17 6 0 0 7 -12 16 -12 8 -20 19 -17 24 4 7 50 7 80 0 20 -5 36
0 30 10 -9 14 1 12 35 -5 17 -9 30 -11 30 -6 0 5 -8 12 -17 16 -17 6 -17 7 -1
16 10 6 25 5 40 -1 21 -10 20 -10 -7 -5 l-30 5 24 -14 c18 -10 28 -11 37 -2 6
6 10 14 8 17 -2 4 8 15 21 25 14 10 25 26 25 36 0 9 10 24 23 33 22 16 22 16
2 32 -19 15 -19 15 8 9 21 -5 27 -4 21 5 -5 8 -2 10 8 6 11 -4 18 2 22 18 4
16 11 22 21 19 8 -4 15 -1 15 5 0 6 5 11 11 11 17 0 60 50 54 61 -4 5 -1 9 6
9 8 0 7 5 -2 17 -10 11 -10 14 -1 9 7 -4 12 -1 12 8 0 9 11 18 25 22 14 3 22
11 18 17 -4 6 0 8 11 4 9 -4 15 -3 11 3 -3 5 16 29 42 54 26 25 43 46 38 46
-5 0 0 6 10 14 11 8 23 12 27 10 5 -3 8 7 8 22 0 15 7 32 14 38 8 6 16 18 18
26 2 8 11 23 21 34 9 11 17 28 17 38 0 23 35 80 44 71 4 -4 9 3 13 15 3 12 9
22 13 22 10 0 30 56 30 85 0 13 7 25 15 29 8 3 15 12 15 20 0 18 31 77 48 91
7 5 15 24 18 40 2 17 9 45 15 63 11 34 4 92 -12 92 -5 0 -9 7 -9 15 0 13 4 14
21 5 11 -7 22 -10 23 -8 27 41 35 60 30 73 -4 8 -2 21 4 28 15 19 25 77 24
134 -1 29 2 53 6 53 11 0 32 61 32 94 0 14 7 43 15 63 8 20 17 50 20 67 2 17
8 46 14 64 7 22 6 32 -1 32 -7 0 -6 5 1 14 41 50 74 317 43 348 -8 8 -34 12
-69 11 -41 -1 -53 1 -44 10 8 8 5 17 -11 34 -12 13 -18 26 -15 30 4 3 13 -2
20 -11 17 -24 86 -28 126 -9 31 16 53 56 57 110 2 18 11 44 20 58 21 33 26
152 6 160 -7 3 -11 9 -7 15 3 5 7 43 10 84 3 65 1 79 -17 102 -19 23 -19 27
-6 35 16 9 13 59 -4 59 -5 0 -6 5 -2 12 18 29 -3 152 -29 171 -9 7 -9 10 1 14
6 2 12 19 11 36 0 28 -2 29 -10 12 -7 -16 -8 -13 -4 13 7 49 -4 81 -30 88 -21
5 -35 29 -35 62 0 7 5 10 10 7 6 -3 10 -1 10 4 0 6 -3 11 -7 12 -9 1 -42 6
-90 14 -50 9 -40 26 12 21 39 -3 44 -2 34 10 -16 20 -76 47 -87 40 -6 -3 -15
1 -22 9 -7 8 -21 15 -31 15 -11 0 -19 6 -19 14 0 15 -29 30 -39 21 -3 -3 1
-10 9 -15 8 -5 12 -12 8 -15 -3 -4 -16 4 -27 16 -12 13 -34 29 -49 35 -27 13
-27 13 -4 20 21 6 22 8 6 25 -9 10 -21 16 -25 13 -5 -3 -23 1 -41 9 -18 8 -52
22 -75 30 -38 15 -42 15 -48 -1 -5 -14 -10 -11 -27 16 -11 17 -26 32 -34 32
-8 0 -14 4 -14 9 0 5 -13 14 -29 19 -16 6 -46 28 -67 50 -20 22 -43 38 -50 35
-6 -2 -15 1 -20 8 -5 9 -2 10 9 6 10 -3 17 -2 17 3 0 6 -4 10 -9 10 -5 0 -18
15 -30 33 -11 17 -21 27 -21 20 0 -6 5 -15 10 -18 6 -3 10 -11 10 -18 0 -6
-11 1 -25 16 -14 15 -32 27 -40 27 -8 0 -17 5 -21 12 -4 7 -3 8 4 4 19 -12 14
3 -14 40 -15 19 -33 34 -42 34 -11 0 -13 9 -9 39 4 32 2 40 -14 44 -10 3 -20
0 -22 -7 -3 -8 -8 -8 -18 2 -11 10 -11 12 2 13 7 1 -15 7 -51 14 -50 10 -58
13 -32 15 17 1 37 4 42 5 6 1 22 3 37 4 32 1 26 10 -13 16 -67 11 -162 42
-178 57 -14 15 -64 26 -136 31 -14 1 -28 7 -32 12 -5 6 -11 5 -16 -3 -7 -10
-12 -9 -23 4 -11 13 -11 18 -1 21 32 11 -7 53 -50 53 l-30 0 23 -21 c13 -11
17 -18 9 -15 -8 3 -23 9 -32 12 -10 4 -18 10 -18 15 0 5 -9 9 -20 9 -11 0 -23
6 -26 14 -3 8 -14 13 -24 11 -10 -2 -24 3 -31 11 -6 8 -17 14 -24 14 -7 0 -15
7 -18 15 -4 8 -15 12 -26 10 -11 -2 -25 3 -32 11 -6 8 -18 14 -25 14 -17 0
-18 17 -1 23 17 5 -16 75 -40 84 -10 4 -25 14 -33 22 -13 13 -13 14 3 8 15 -6
17 -3 12 12 -3 11 0 40 6 66 8 33 9 49 1 57 -8 8 -8 17 -1 30 6 12 6 18 -1 18
-5 0 -10 6 -10 14 0 8 -8 17 -17 21 -16 6 -15 8 6 24 17 13 22 23 16 40 -3 12
-11 19 -16 16 -5 -4 -9 -1 -9 5 0 6 7 13 15 16 21 8 19 24 -2 25 -10 0 -13 3
-6 5 7 3 9 12 6 21 -4 9 1 19 11 25 9 5 14 14 10 19 -8 14 -13 162 -5 174 15
26 28 76 20 81 -15 9 -10 24 6 18 8 -4 15 -2 15 4 0 6 -6 12 -12 15 -10 4 -10
7 0 18 14 16 16 33 2 24 -5 -3 -10 1 -10 10 0 10 5 13 12 9 7 -5 8 -3 3 6 -10
16 -13 110 -4 110 3 0 3 19 -2 43 -4 23 -5 54 -2 68 3 15 0 30 -6 33 -6 4 -11
12 -11 17 0 6 5 7 12 3 8 -5 9 2 5 26 -4 18 -7 39 -7 47 0 9 -6 13 -14 10 -9
-4 -19 5 -26 24 -7 16 -17 29 -22 29 -6 0 -8 7 -4 15 3 8 0 14 -7 12 -7 -1
-10 5 -8 13 2 8 4 25 4 38 -1 27 13 29 22 2 3 -11 10 -20 15 -20 5 0 7 6 4 13
-8 23 -10 158 -2 163 4 3 4 14 -2 24 -5 10 -10 36 -10 57 0 22 -5 44 -11 50
-7 7 -8 20 -3 34 13 38 11 103 -4 109 -10 4 -14 40 -17 140 -3 139 -10 203
-26 232 -5 9 -9 33 -9 52 0 20 -4 36 -8 36 -4 0 -8 8 -9 18 -3 46 -35 179 -49
200 -9 14 -11 21 -5 18 6 -4 11 -3 11 2 0 6 -7 13 -15 16 -13 4 -14 10 -5 26
7 14 8 26 0 39 -7 14 -7 22 0 26 6 4 7 12 3 18 -4 7 -8 26 -8 42 -1 17 -5 36
-9 43 -4 7 -3 18 2 25 5 7 6 21 2 32 -4 11 -5 26 -2 34 3 9 1 12 -6 7 -7 -4
-12 -1 -12 8 0 8 -6 17 -12 20 -9 4 -10 8 -2 11 7 4 9 20 4 47 -5 23 -6 49 -3
57 4 14 3 14 -6 1 -5 -8 -12 -12 -14 -10 -9 10 -15 120 -7 115 5 -3 4 8 -1 25
-6 16 -12 30 -12 30 -1 0 -3 -21 -4 -46 -1 -26 -6 -51 -12 -57 -13 -13 -13
-10 -2 30 5 17 6 58 2 92 -4 34 -6 61 -4 61 2 0 9 -14 15 -31 9 -27 12 -29 21
-14 6 12 6 20 -3 25 -8 5 -11 19 -7 37 4 18 -2 45 -14 72 -10 24 -17 47 -14
52 3 4 -4 27 -15 50 -12 22 -19 43 -16 46 2 3 14 -13 25 -34 20 -40 48 -54 46
-22 -1 22 -24 49 -37 46 -6 -1 -13 4 -16 12 -2 8 0 11 5 8 5 -3 10 0 10 8 0 8
-4 12 -9 9 -4 -3 -8 1 -8 8 0 10 -2 10 -9 -1 -7 -11 -10 -11 -15 0 -3 8 -3 3
0 -11 6 -25 5 -25 -21 5 l-27 30 22 -33 c30 -45 19 -51 -14 -7 -15 19 -32 35
-37 35 -6 0 -8 -3 -5 -8z m149 -98 c-3 -8 -7 -14 -10 -14 -3 0 -3 7 1 15 3 8
1 15 -4 15 -6 0 -10 5 -10 11 0 8 4 8 14 -1 8 -6 12 -18 9 -26z m-27 -95 c14
-28 23 -53 21 -56 -3 -2 -8 5 -12 16 -3 12 -10 19 -15 16 -5 -3 -12 0 -16 6
-4 8 -3 9 4 5 7 -4 12 -2 12 4 0 6 -7 13 -15 16 -13 6 -22 44 -10 44 2 0 16
-23 31 -51z m-67 -43 c-3 -3 -11 5 -18 17 -13 21 -12 21 5 5 10 -10 16 -20 13
-22z m-361 -5 c3 -8 -1 -12 -9 -9 -7 2 -15 10 -17 17 -3 8 1 12 9 9 7 -2 15
-10 17 -17z m432 -11 c0 -5 -4 -10 -10 -10 -5 0 -10 5 -10 10 0 6 5 10 10 10
6 0 10 -4 10 -10z m-62 -36 c-4 -3 -12 5 -18 18 -12 22 -12 22 6 6 10 -10 15
-20 12 -24z m-411 -296 c-3 -8 -6 -5 -6 6 -1 11 2 17 5 13 3 -3 4 -12 1 -19z
m-1032 -76 c-3 -3 -11 0 -18 7 -9 10 -8 11 6 5 10 -3 15 -9 12 -12z m1495
-307 c0 -4 -67 -35 -76 -35 -2 0 -4 4 -4 9 0 5 12 14 28 19 30 12 52 14 52 7z
m-357 -82 c-7 -2 -19 -2 -25 0 -7 3 -2 5 12 5 14 0 19 -2 13 -5z m-993 -473
c0 -5 -5 -10 -11 -10 -5 0 -7 5 -4 10 3 6 8 10 11 10 2 0 4 -4 4 -10z m-60
-45 c0 -8 -9 -15 -20 -15 -25 0 -26 17 -2 23 9 3 18 5 20 6 1 0 2 -6 2 -14z
m-100 -7 c0 -6 -3 -9 -6 -5 -3 3 -17 2 -30 -3 -14 -6 -24 -6 -24 0 0 8 20 16
48 19 6 0 12 -4 12 -11z m1518 -363 c-2 -5 -11 -11 -22 -12 -16 -3 -17 -1 -6
12 14 16 34 16 28 0z m-78 -15 c0 -5 -4 -10 -10 -10 -5 0 -10 5 -10 10 0 6 5
10 10 10 6 0 10 -4 10 -10z m150 -220 c-20 -13 -40 -13 -40 0 0 6 12 10 28 10
21 0 24 -2 12 -10z m-1140 -120 c0 -5 -10 -10 -22 -10 -19 0 -20 2 -8 10 19
13 30 13 30 0z m-65 -20 c-3 -5 -11 -10 -16 -10 -6 0 -7 5 -4 10 3 6 11 10 16
10 6 0 7 -4 4 -10z m-192 -55 c-3 -9 -8 -14 -10 -11 -3 3 -2 9 2 15 9 16 15
13 8 -4z m257 -93 c0 -15 -9 -35 -20 -45 -23 -20 -26 -10 -5 19 16 24 9 39
-12 23 -16 -14 -17 3 -1 19 21 21 38 14 38 -16z m-96 2 c-18 -15 -18 -15 4 -9
25 7 31 -12 6 -22 -15 -5 -14 -7 1 -16 13 -7 14 -11 5 -17 -8 -5 -19 -2 -27 6
-8 8 -19 12 -24 9 -5 -4 -9 -1 -9 4 0 6 5 11 10 11 6 0 10 8 10 18 0 23 8 32
29 32 11 0 11 -3 -5 -16z m186 6 c0 -5 -4 -10 -10 -10 -5 0 -10 5 -10 10 0 6
5 10 10 10 6 0 10 -4 10 -10z m-293 -86 c-3 -4 -13 -4 -22 0 -13 5 -14 10 -4
28 l12 23 10 -23 c6 -12 7 -25 4 -28z m43 -34 c-8 -14 -21 -20 -48 -20 -34 0
-35 1 -16 14 11 8 31 16 44 19 14 2 26 5 28 6 1 0 -2 -8 -8 -19z m-100 -20 c0
-5 -2 -10 -4 -10 -3 0 -8 5 -11 10 -3 6 -1 10 4 10 6 0 11 -4 11 -10z m1210
-290 c0 -11 -4 -20 -8 -20 -4 0 -8 9 -9 20 -1 11 2 20 8 20 5 0 9 -9 9 -20z
m-30 0 c0 -5 -4 -10 -10 -10 -5 0 -10 5 -10 10 0 6 5 10 10 10 6 0 10 -4 10
-10z m-10 -40 c0 -5 -5 -10 -11 -10 -5 0 -7 5 -4 10 3 6 8 10 11 10 2 0 4 -4
4 -10z m430 -20 c0 -11 -2 -20 -4 -20 -2 0 -6 9 -9 20 -3 11 -1 20 4 20 5 0 9
-9 9 -20z m-424 -126 c-4 -9 -9 -15 -11 -12 -3 3 -3 13 1 22 4 9 9 15 11 12 3
-3 3 -13 -1 -22z m214 -24 c0 -5 -2 -10 -4 -10 -3 0 -8 5 -11 10 -3 6 -1 10 4
10 6 0 11 -4 11 -10z m-1010 -4 c0 -11 -19 -15 -25 -6 -3 5 1 10 9 10 9 0 16
-2 16 -4z m985 -6 c3 -5 1 -10 -4 -10 -6 0 -11 5 -11 10 0 6 2 10 4 10 3 0 8
-4 11 -10z m46 -36 c-9 -7 -18 -10 -21 -8 -2 3 1 9 8 13 7 4 10 16 6 27 -6 18
-6 18 9 -1 13 -17 13 -21 -2 -31z m-61 8 c0 -4 -9 -13 -20 -19 -14 -9 -21 -10
-26 -1 -4 7 -3 8 4 4 7 -4 12 -1 12 8 0 9 7 16 15 16 8 0 15 -3 15 -8z m90
-22 c0 -5 -8 -10 -17 -10 -15 0 -16 2 -3 10 19 12 20 12 20 0z m-1240 -55 c0
-5 -5 -3 -10 5 -5 8 -10 20 -10 25 0 6 5 3 10 -5 5 -8 10 -19 10 -25z m1194
10 c3 -8 9 -15 13 -14 24 4 42 -3 48 -18 11 -27 16 -73 7 -73 -12 0 -41 38
-35 44 4 3 1 6 -5 6 -6 0 -13 -4 -17 -10 -7 -11 -45 19 -45 37 0 7 5 13 11 13
6 0 9 7 5 15 -3 8 -1 15 3 15 5 0 11 -7 15 -15z m-1110 -40 c3 -8 1 -15 -4
-15 -6 0 -10 7 -10 15 0 8 2 15 4 15 2 0 6 -7 10 -15z m53 -27 c-3 -8 -6 -5
-6 6 -1 11 2 17 5 13 3 -3 4 -12 1 -19z m1094 -35 c7 -16 15 -31 17 -35 2 -3
-6 -4 -18 -1 -12 3 -19 11 -16 19 3 7 1 16 -4 19 -12 8 -13 25 -2 25 5 0 15
-12 23 -27z m-41 7 c0 -5 -4 -10 -10 -10 -5 0 -10 5 -10 10 0 6 5 10 10 10 6
0 10 -4 10 -10z m-820 -70 c0 -5 -4 -10 -10 -10 -5 0 -10 5 -10 10 0 6 5 10
10 10 6 0 10 -4 10 -10z m944 -11 c-8 -14 -34 -10 -34 5 0 9 7 12 20 9 11 -3
17 -9 14 -14z m-904 -83 c0 -3 -4 -8 -10 -11 -5 -3 -10 -1 -10 4 0 6 5 11 10
11 6 0 10 -2 10 -4z m-44 -62 c-19 -18 -21 -11 -4 19 7 14 13 17 15 10 3 -7
-3 -20 -11 -29z m639 -34 c3 -5 1 -10 -4 -10 -6 0 -11 5 -11 10 0 6 2 10 4 10
3 0 8 -4 11 -10z m-627 -75 c-3 -3 -9 2 -12 12 -6 14 -5 15 5 6 7 -7 10 -15 7
-18z m126 7 c2 -4 -4 -9 -15 -9 -10 -1 -19 2 -19 8 0 11 27 12 34 1z m-34 -42
c0 -5 -2 -10 -4 -10 -3 0 -8 5 -11 10 -3 6 -1 10 4 10 6 0 11 -4 11 -10z m496
-57 c-8 24 10 12 26 -16 10 -20 10 -21 -7 -7 -17 14 -17 13 -10 -10 7 -25 7
-25 -10 -5 -16 20 -17 20 -10 0 9 -30 0 -16 -35 49 l-31 59 41 -44 c23 -24 39
-36 36 -26z m-117 -7 c7 -8 14 -31 16 -53 2 -21 2 -30 -1 -21 -3 10 -11 15
-20 11 -9 -3 -14 1 -14 13 0 11 -3 29 -6 42 -7 25 7 29 25 8z m165 -2 c3 -8 2
-12 -4 -9 -6 3 -10 10 -10 16 0 14 7 11 14 -7z m40 7 c3 -5 -1 -11 -9 -15 -9
-3 -15 0 -15 9 0 16 16 20 24 6z m-324 -22 c0 -18 -2 -20 -15 -9 -13 11 -13
15 -3 21 18 12 18 12 18 -12z m200 -14 c0 -5 -5 -3 -10 5 -9 13 -10 13 -10 0
0 -13 -1 -13 -10 0 -6 9 -5 17 3 22 11 7 27 -8 27 -27z m1057 29 c-3 -3 -12
-4 -19 -1 -8 3 -5 6 6 6 11 1 17 -2 13 -5z m-1098 -54 c0 -9 -4 -8 -9 5 -5 11
-9 27 -9 35 0 9 4 8 9 -5 5 -11 9 -27 9 -35z m-86 -60 c-6 -7 -52 53 -53 69 0
8 13 -4 29 -25 15 -21 26 -41 24 -44z m35 -73 c7 -18 10 -22 8 -9 -2 12 -1 22
2 22 20 -1 27 -22 28 -83 l0 -69 -22 45 c-12 25 -24 58 -28 74 -4 15 -10 37
-13 48 -8 30 10 9 25 -28z m42 23 c0 -5 -2 -10 -4 -10 -3 0 -8 5 -11 10 -3 6
-1 10 4 10 6 0 11 -4 11 -10z m-176 -89 c13 -20 40 -45 60 -56 20 -11 38 -26
41 -35 7 -21 62 -80 75 -80 5 0 10 -5 10 -12 0 -6 3 -9 6 -5 11 11 -7 46 -22
40 -7 -3 -14 0 -14 7 0 6 5 8 10 5 13 -8 13 1 -1 27 -7 12 -7 18 -1 14 6 -3
12 -1 14 6 3 7 22 -21 42 -62 40 -78 66 -120 66 -107 0 5 -5 18 -11 30 -10 22
-10 22 6 2 17 -22 24 -23 35 -5 5 9 9 9 14 1 4 -6 3 -11 -2 -11 -13 0 -3 -37
18 -73 14 -22 19 -25 23 -13 4 10 13 13 22 9 12 -4 13 -8 5 -13 -8 -5 -9 -10
-2 -14 6 -4 15 1 20 11 8 13 12 7 24 -33 7 -27 19 -49 26 -49 7 0 28 -18 47
-40 19 -22 33 -33 30 -24 -3 8 22 -11 55 -43 34 -32 66 -58 72 -58 21 0 117
-104 124 -133 4 -18 9 -25 13 -18 7 11 14 1 39 -59 5 -14 23 -54 40 -90 16
-36 28 -67 26 -69 -3 -3 -21 12 -42 32 -20 20 -41 36 -45 36 -16 -2 -67 24
-62 31 7 11 -47 55 -82 68 -24 8 -33 8 -36 -1 -3 -9 -7 -9 -19 0 -8 7 -18 10
-21 6 -4 -3 -7 1 -7 10 0 9 -7 17 -15 17 -9 0 -15 9 -15 25 0 17 -9 29 -30 40
-16 9 -30 21 -30 29 0 7 -9 21 -19 30 -15 13 -20 14 -24 4 -4 -10 -8 -10 -14
-1 -4 6 -21 15 -36 18 -15 4 -27 14 -27 22 0 8 -6 13 -12 10 -7 -2 -12 -9 -11
-15 2 -6 -9 -6 -29 1 l-31 12 26 9 c41 15 30 46 -28 81 -39 23 -46 30 -30 33
10 3 21 -1 23 -7 4 -12 32 -16 32 -4 0 4 -15 22 -32 41 -19 19 -26 30 -15 27
35 -14 15 15 -68 99 -47 47 -85 88 -85 92 0 4 14 -5 31 -22 53 -50 28 -10 -46
71 -60 66 -117 140 -150 194 -19 33 17 -3 39 -38z m-316 6 c-5 -10 -7 -25 -4
-33 10 -25 -3 -15 -19 16 -19 38 -19 38 9 36 20 -1 22 -4 14 -19z m437 -63 c9
-50 0 -53 -13 -4 -5 22 -6 40 -2 40 4 0 11 -16 15 -36z m1525 -5 c0 -6 -4 -7
-10 -4 -5 3 -10 11 -10 16 0 6 5 7 10 4 6 -3 10 -11 10 -16z m-1503 -21 c-3
-7 -5 -2 -5 12 0 14 2 19 5 13 2 -7 2 -19 0 -25z m-507 13 c0 -5 -9 -7 -20 -4
-11 3 -20 7 -20 9 0 2 9 4 20 4 11 0 20 -4 20 -9z m603 -8 c-3 -7 -6 -13 -8
-13 -2 0 -5 6 -8 13 -3 8 1 14 8 14 7 0 11 -6 8 -14z m-423 -176 c5 2 7 -4 4
-12 -8 -21 -11 -19 -29 18 -15 30 -15 30 0 12 9 -11 20 -19 25 -18z m45 -32
c6 -1 9 -7 7 -13 -3 -16 61 -44 82 -36 9 4 16 1 16 -6 0 -6 6 -10 13 -7 6 2
30 -5 52 -16 37 -19 38 -20 17 -28 -25 -10 -30 -29 -6 -29 10 0 14 -6 11 -14
-3 -8 1 -20 9 -27 8 -7 12 -19 9 -27 -3 -8 0 -21 6 -28 6 -8 8 -14 4 -14 -11
0 -101 95 -108 114 -8 20 2 21 17 1 9 -13 11 -11 11 10 0 19 -4 23 -18 19 -10
-3 -16 -1 -15 6 2 6 -24 22 -57 34 -33 12 -73 30 -90 39 -28 15 -28 16 -7 17
15 0 21 4 16 12 -5 7 -3 8 7 2 8 -5 19 -9 24 -9z m315 -20 c0 -5 -5 -3 -10 5
-5 8 -10 20 -10 25 0 6 5 3 10 -5 5 -8 10 -19 10 -25z m200 16 c0 -3 -4 -12
-9 -19 -7 -11 -10 -10 -15 3 -10 26 -7 35 9 29 8 -4 15 -9 15 -13z m-595 -1
c3 -5 2 -10 -4 -10 -5 0 -13 5 -16 10 -3 6 -2 10 4 10 5 0 13 -4 16 -10z m195
-25 c0 -5 -5 -3 -10 5 -5 8 -10 20 -10 25 0 6 5 3 10 -5 5 -8 10 -19 10 -25z
m-28 1 c7 4 8 2 4 -5 -9 -13 -26 -5 -25 12 0 9 2 8 6 -1 2 -6 10 -9 15 -6z
m1155 -113 c-3 -10 -5 -2 -5 17 0 19 2 27 5 18 2 -10 2 -26 0 -35z m-1257 12
c11 -13 10 -14 -4 -9 -9 3 -16 10 -16 15 0 13 6 11 20 -6z m1270 -132 c0 -22
-2 -25 -10 -13 -13 20 -13 40 0 40 6 0 10 -12 10 -27z m140 -3 c0 -11 -4 -20
-9 -20 -5 0 -7 9 -4 20 3 11 7 20 9 20 2 0 4 -9 4 -20z m-154 -97 c-10 -10
-19 5 -10 18 6 11 8 11 12 0 2 -7 1 -15 -2 -18z m8 -95 c7 -5 6 -8 -5 -8 -9 0
-16 -6 -17 -12 -7 -55 -11 -131 -6 -121 3 8 13 9 28 3 20 -7 23 -5 24 18 1 32
19 101 22 87 1 -5 1 -26 0 -46 -1 -21 4 -40 9 -44 6 -3 9 -11 5 -16 -3 -5 0
-8 8 -7 8 2 14 -9 16 -29 2 -18 7 -33 11 -33 5 0 6 11 3 25 -2 15 0 25 7 25 6
0 11 -13 11 -30 0 -29 -7 -34 -47 -33 -7 1 -10 -3 -7 -8 11 -18 -9 -9 -27 13
-11 11 -19 17 -19 11 0 -5 8 -18 18 -29 11 -11 18 -27 16 -37 -1 -9 2 -15 7
-11 5 3 7 10 4 15 -8 12 2 11 26 -2 11 -5 17 -14 14 -19 -3 -5 12 -18 34 -30
l40 -20 3 33 c3 27 5 29 12 12 4 -11 12 -28 17 -39 8 -14 7 -17 -3 -11 -7 4
-2 -3 12 -14 14 -11 31 -19 37 -16 7 2 12 -1 10 -7 -1 -6 4 -13 12 -16 9 -3
11 0 6 8 -5 9 -4 11 4 6 6 -4 9 -11 6 -16 -3 -4 2 -11 11 -14 9 -3 14 -12 12
-19 -3 -6 4 -20 14 -29 10 -10 18 -14 18 -9 0 5 9 7 20 4 11 -3 20 -9 20 -14
0 -4 18 -14 40 -20 52 -16 68 -34 52 -59 -14 -23 -7 -47 16 -54 10 -2 0 -2
-20 1 -68 9 -73 9 -72 -9 2 -24 -8 -22 -40 7 -31 28 -96 36 -96 11 0 -8 -4
-17 -10 -21 -14 -9 -51 18 -45 33 3 8 2 19 -2 25 -5 7 -8 21 -8 31 0 19 -14
21 -88 17 -8 -1 -19 -11 -25 -23 -9 -20 -10 -17 -5 15 5 32 3 36 -11 31 -9 -3
-16 -1 -16 6 0 14 -26 41 -43 44 -6 1 -18 5 -25 10 -7 4 -16 5 -19 2 -7 -7
-32 24 -33 42 0 6 -9 21 -20 32 -11 11 -20 26 -20 34 0 7 -9 16 -19 19 -24 6
-57 69 -65 122 l-6 40 15 -32 c20 -43 33 -49 41 -18 5 20 9 23 20 14 8 -6 12
-15 9 -19 -3 -5 -1 -11 5 -15 5 -3 10 1 10 10 0 8 7 18 15 21 8 4 12 10 9 15
-2 5 -1 17 5 26 5 10 11 32 14 48 5 31 12 65 24 113 5 23 7 24 11 7 2 -11 9
-23 16 -27z m-704 3 c0 -11 5 -23 11 -27 8 -4 7 -9 -2 -15 -11 -7 -10 -11 6
-23 18 -14 18 -15 3 -16 -11 0 -18 -8 -18 -19 0 -18 -17 -38 -25 -30 -2 2 -6
27 -9 56 -4 44 -3 51 10 46 12 -4 14 0 8 21 -4 16 -2 26 5 26 6 0 11 -9 11
-19z m743 -20 c-4 -3 -11 -10 -15 -15 -4 -4 -6 1 -5 12 1 12 6 18 15 15 7 -3
10 -9 5 -12z m74 -43 c-3 -8 -6 -5 -6 6 -1 11 2 17 5 13 3 -3 4 -12 1 -19z
m-482 -38 c3 -5 1 -10 -4 -10 -6 0 -11 5 -11 10 0 6 2 10 4 10 3 0 8 -4 11
-10z m485 -27 c0 -19 -3 -24 -10 -17 -6 6 -8 18 -4 27 9 24 14 21 14 -10z
m-3465 -263 c3 -5 1 -10 -4 -10 -6 0 -11 5 -11 10 0 6 2 10 4 10 3 0 8 -4 11
-10z m2045 -40 c0 -5 -2 -10 -4 -10 -3 0 -8 5 -11 10 -3 6 -1 10 4 10 6 0 11
-4 11 -10z m-1830 -50 c0 -5 -2 -10 -4 -10 -3 0 -8 5 -11 10 -3 6 -1 10 4 10
6 0 11 -4 11 -10z m150 -30 c0 -5 -2 -10 -4 -10 -3 0 -8 5 -11 10 -3 6 -1 10
4 10 6 0 11 -4 11 -10z m2015 0 c-3 -5 -11 -10 -16 -10 -6 0 -7 5 -4 10 3 6
11 10 16 10 6 0 7 -4 4 -10z m-2210 -10 c3 -5 1 -10 -4 -10 -6 0 -11 5 -11 10
0 6 2 10 4 10 3 0 8 -4 11 -10z m249 -45 c-3 -7 -12 -11 -20 -8 -8 3 -14 1
-14 -5 0 -15 -38 -3 -44 14 -7 17 6 18 23 2 11 -11 14 -10 18 0 3 6 9 10 14 6
5 -3 9 0 9 6 0 6 4 9 10 5 5 -3 7 -12 4 -20z m2356 15 c0 -5 -2 -10 -4 -10 -3
0 -8 5 -11 10 -3 6 -1 10 4 10 6 0 11 -4 11 -10z m-56 -33 c4 -19 3 -26 -4
-22 -17 10 -11 -1 11 -21 11 -10 20 -14 19 -9 -5 22 1 45 10 45 6 0 10 -13 10
-30 0 -21 5 -30 16 -30 11 0 15 -6 11 -20 -3 -11 0 -20 6 -21 8 0 8 -2 0 -6
-16 -6 -17 -59 -2 -69 6 -3 8 -16 5 -29 -4 -15 2 -30 18 -48 28 -30 23 -34
-54 -39 -45 -3 -45 -3 -42 29 2 17 -3 44 -11 60 -8 15 -13 33 -10 38 2 6 -11
25 -28 43 -33 34 -30 44 5 15 20 -18 20 -18 4 7 -10 16 -24 24 -37 23 -12 -2
-21 2 -21 8 0 5 6 7 13 3 9 -6 9 -4 -1 8 -7 8 -9 23 -6 33 7 17 8 17 21 -1 20
-27 39 -4 22 27 -12 23 -11 23 6 9 14 -11 17 -11 11 -1 -5 8 -3 16 5 22 16 9
15 11 23 -24z m-147 -27 c-1 -11 -4 -20 -8 -20 -4 0 -6 11 -5 24 0 13 4 22 8
20 4 -2 6 -13 5 -24z m374 -86 c13 -60 13 -63 5 -148 -3 -39 -1 -99 5 -135 14
-87 13 -83 27 -108 7 -13 10 -23 6 -23 -3 0 -1 -7 6 -15 7 -8 17 -12 23 -8 6
4 8 0 4 -9 -3 -9 0 -21 6 -28 10 -10 7 -11 -13 -7 -19 5 -27 1 -36 -16 -12
-28 -9 -168 5 -195 6 -11 6 -23 1 -28 -9 -9 18 -137 33 -162 5 -7 4 -19 -3
-27 -9 -11 -10 -37 -1 -111 6 -53 16 -104 21 -113 5 -10 5 -67 0 -139 -5 -70
-5 -162 1 -215 4 -50 8 -105 8 -122 l-1 -30 -9 35 c-5 19 -12 121 -15 225 -3
105 -12 235 -20 290 -9 55 -17 125 -20 155 -6 73 -53 410 -61 435 -12 40 0
565 13 552 2 -2 9 -26 15 -53z m974 36 c8 -13 -5 -13 -25 0 -13 8 -13 10 2 10
9 0 20 -4 23 -10z m-3550 -30 c3 -5 1 -10 -4 -10 -6 0 -11 5 -11 10 0 6 2 10
4 10 3 0 8 -4 11 -10z m1202 -72 c12 1 25 -3 28 -8 4 -6 -1 -7 -12 -3 -14 5
-13 0 7 -23 18 -21 19 -25 5 -14 -39 30 -62 38 -88 33 -15 -3 -27 -1 -27 5 0
13 30 21 50 14 8 -2 25 -4 37 -4z m1773 -29 c0 -6 -4 -7 -10 -4 -5 3 -10 11
-10 16 0 6 5 7 10 4 6 -3 10 -11 10 -16z m-1790 -19 c0 -5 -2 -10 -4 -10 -3 0
-8 5 -11 10 -3 6 -1 10 4 10 6 0 11 -4 11 -10z m-80 -25 c7 -8 8 -15 2 -15 -5
0 -15 7 -22 15 -7 8 -8 15 -2 15 5 0 15 -7 22 -15z m80 -1 c0 -2 -7 -4 -15 -4
-8 0 -15 4 -15 10 0 5 7 7 15 4 8 -4 15 -8 15 -10z m360 -4 c0 -5 -2 -10 -4
-10 -3 0 -8 5 -11 10 -3 6 -1 10 4 10 6 0 11 -4 11 -10z m-375 -20 c3 -5 2
-10 -4 -10 -5 0 -13 5 -16 10 -3 6 -2 10 4 10 5 0 13 -4 16 -10z m180 -51 c22
-5 49 -14 60 -20 18 -8 17 -9 -5 -4 -14 3 -53 8 -87 12 -35 3 -63 9 -63 13 0
5 -13 13 -30 19 -16 5 -30 14 -30 20 0 6 11 6 30 1 24 -7 30 -5 30 6 0 10 8 7
28 -11 15 -14 45 -30 67 -36z m214 47 c-11 -9 -69 -14 -69 -6 0 6 17 10 37 10
20 0 34 -2 32 -4z m-183 -101 c15 -11 16 -14 3 -15 -8 0 -24 7 -35 15 -15 11
-16 14 -3 15 8 0 24 -7 35 -15z m209 -55 c11 -4 29 -11 39 -14 10 -4 16 -9 13
-12 -6 -7 -137 34 -137 43 0 6 58 -5 85 -17z m-237 -23 c4 -29 -11 -35 -38
-16 -13 8 -12 9 4 7 10 -2 21 3 23 10 3 6 -3 12 -12 12 -9 0 -13 5 -10 11 11
17 30 4 33 -24z m-1058 -53 c0 -8 -4 -12 -10 -9 -5 3 -10 10 -10 16 0 5 5 9
10 9 6 0 10 -7 10 -16z m1065 -24 c3 -5 2 -10 -4 -10 -5 0 -13 5 -16 10 -3 6
-2 10 4 10 5 0 13 -4 16 -10z m1365 -84 c0 -11 -19 -15 -25 -6 -3 5 1 10 9 10
9 0 16 -2 16 -4z m-1370 -31 c19 -23 8 -26 -20 -5 -19 15 -21 20 -9 20 9 0 22
-7 29 -15z m1808 -87 c12 -21 18 -38 14 -38 -9 0 -42 57 -42 72 0 14 1 13 28
-34z m-2838 22 c0 -5 -4 -10 -10 -10 -5 0 -10 5 -10 10 0 6 5 10 10 10 6 0 10
-4 10 -10z m-30 -20 c0 -6 -7 -13 -15 -16 -8 -4 -15 -16 -15 -27 0 -14 -3 -18
-10 -11 -11 11 -1 56 11 48 5 -3 9 0 9 5 0 6 5 11 10 11 6 0 10 -5 10 -10z
m2930 -114 c0 -18 -3 -16 -20 12 -26 42 -25 64 0 33 11 -13 20 -33 20 -45z
m-3000 40 c0 -11 -19 -15 -25 -6 -3 5 1 10 9 10 9 0 16 -2 16 -4z m34 -41 c-5
-20 -9 -24 -18 -14 -8 8 -8 13 2 16 6 3 12 12 12 21 0 8 2 13 5 10 4 -3 3 -18
-1 -33z m2662 -85 c-14 -17 -26 -38 -26 -46 0 -25 -18 -15 -29 17 -14 40 -14
49 0 49 5 0 8 -4 5 -9 -13 -21 24 -17 45 5 32 34 37 21 5 -16z m-113 -131
c-20 -34 -53 -67 -53 -53 0 10 58 84 66 84 3 0 -3 -14 -13 -31z m-416 -401
c-3 -8 -6 -5 -6 6 -1 11 2 17 5 13 3 -3 4 -12 1 -19z m1063 -898 c0 -5 -2 -10
-4 -10 -3 0 -8 5 -11 10 -3 6 -1 10 4 10 6 0 11 -4 11 -10z"/>
<path d="M5056 7220 c-11 -3 -15 -9 -10 -13 10 -6 42 9 34 16 -3 3 -14 1 -24
-3z"/>
<path d="M4687 6699 c4 -13 8 -18 11 -10 2 7 -1 18 -6 23 -8 8 -9 4 -5 -13z"/>
<path d="M4706 6477 c3 -10 9 -15 12 -12 3 3 0 11 -7 18 -10 9 -11 8 -5 -6z"/>
<path d="M4730 6361 c0 -6 4 -13 10 -16 6 -3 7 1 4 9 -7 18 -14 21 -14 7z"/>
<path d="M4750 6327 c0 -11 39 -87 45 -87 2 0 1 8 -2 18 -9 24 -43 79 -43 69z"/>
<path d="M4850 6225 c0 -5 5 -17 10 -25 5 -8 10 -10 10 -5 0 6 -5 17 -10 25
-5 8 -10 11 -10 5z"/>
<path d="M5360 5611 c0 -5 5 -13 10 -16 6 -3 10 -2 10 4 0 5 -4 13 -10 16 -5
3 -10 2 -10 -4z"/>
<path d="M5658 5323 c7 -3 16 -2 19 1 4 3 -2 6 -13 5 -11 0 -14 -3 -6 -6z"/>
<path d="M5001 5086 c-7 -8 -8 -17 -3 -20 6 -3 13 1 16 10 9 23 2 28 -13 10z"/>
<path d="M5081 5054 c0 -11 3 -14 6 -6 3 7 2 16 -1 19 -3 4 -6 -2 -5 -13z"/>
<path d="M5020 5015 c0 -5 5 -17 10 -25 5 -8 10 -10 10 -5 0 6 -5 17 -10 25
-5 8 -10 11 -10 5z"/>
<path d="M4991 10311 c-10 -7 -8 -17 9 -51 12 -23 24 -40 27 -37 2 3 0 15 -7
27 -6 11 -8 29 -5 40 7 21 -5 32 -24 21z"/>
<path d="M5020 10271 c0 -5 5 -13 10 -16 6 -3 10 -2 10 4 0 5 -4 13 -10 16 -5
3 -10 2 -10 -4z"/>
<path d="M3320 9880 c-9 -6 -10 -10 -3 -10 6 0 15 5 18 10 8 12 4 12 -15 0z"/>
<path d="M3410 9872 c0 -5 7 -13 16 -16 10 -4 14 -1 12 6 -5 15 -28 23 -28 10z"/>
<path d="M6071 9863 c-11 -12 -15 -12 -22 -2 -6 10 -10 10 -23 0 -9 -7 -13
-18 -9 -24 3 -6 1 -7 -5 -3 -7 4 -23 -5 -38 -21 -14 -15 -23 -22 -19 -15 3 6
1 12 -4 12 -10 0 -13 -7 -10 -26 0 -4 -3 -10 -8 -13 -29 -20 -54 -86 -66 -175
-7 -53 -10 -96 -6 -96 4 0 5 -9 2 -19 -3 -10 0 -28 6 -39 7 -14 7 -22 1 -24
-7 -2 -6 -40 3 -116 9 -75 10 -112 3 -112 -6 0 -5 -5 2 -12 7 -7 12 -28 12
-48 0 -20 5 -41 11 -47 7 -7 8 -17 3 -25 -13 -20 -11 -57 3 -62 7 -3 13 -10
13 -16 0 -6 -4 -9 -9 -6 -4 3 -6 -6 -3 -19 2 -14 9 -28 15 -32 6 -3 7 -1 3 5
-5 8 -2 10 9 6 9 -4 13 -9 11 -12 -3 -3 0 -12 7 -20 10 -13 9 -15 -8 -8 -19 7
-19 6 -3 -10 9 -10 27 -18 40 -20 13 -1 48 -11 78 -22 64 -22 155 -36 172 -26
6 4 34 9 62 10 44 2 65 5 122 12 16 3 33 77 27 115 -3 18 -5 42 -5 54 0 15 -9
25 -27 32 l-26 9 26 1 c19 1 28 8 33 24 3 12 2 23 -2 25 -5 1 -6 16 -4 32 2
17 -1 37 -8 45 -7 8 -9 22 -6 32 4 9 1 20 -6 24 -9 6 -9 13 1 35 11 25 11 26
-5 13 -16 -12 -17 -12 -11 4 4 10 7 23 7 28 0 5 7 9 15 9 8 0 15 5 15 11 0 5
-5 7 -12 3 -8 -5 -9 -2 -5 9 9 24 -8 64 -27 64 -12 0 -15 -6 -10 -21 8 -25 1
-20 -16 13 -8 15 -8 21 -1 17 6 -4 11 0 11 8 0 10 -6 13 -15 10 -8 -4 -15 -1
-15 5 0 10 13 15 32 12 4 0 4 7 1 16 -4 9 -2 14 3 10 8 -5 12 79 4 93 -2 3 -4
12 -4 20 -1 9 -10 15 -22 14 -17 -1 -21 4 -20 25 1 14 -5 40 -13 56 -9 17 -16
40 -18 52 -2 23 -30 73 -48 85 -6 5 -4 8 5 9 10 0 8 3 -5 9 -28 12 -47 12 -40
0 3 -5 1 -10 -4 -10 -6 0 -11 11 -11 25 0 26 -24 35 -33 13 -4 -9 -8 -9 -14
-3 -13 16 -77 14 -92 -2z m319 -357 c0 -3 -4 -8 -10 -11 -5 -3 -10 -1 -10 4 0
6 5 11 10 11 6 0 10 -2 10 -4z m7 -278 c-3 -7 -5 -2 -5 12 0 14 2 19 5 13 2
-7 2 -19 0 -25z"/>
<path d="M5940 8850 c8 -5 22 -9 30 -9 10 0 8 3 -5 9 -27 12 -43 12 -25 0z"/>
<path d="M6006 8831 c5 -5 20 -12 34 -15 24 -7 24 -6 6 8 -21 17 -57 23 -40 7z"/>
<path d="M6395 8800 c-3 -5 1 -10 9 -10 8 0 18 5 21 10 3 6 -1 10 -9 10 -8 0
-18 -4 -21 -10z"/>
<path d="M6210 8780 c-55 -5 -64 -7 -35 -10 26 -2 32 -4 18 -7 -24 -5 -32 -23
-10 -23 6 0 4 -5 -6 -11 -9 -6 -14 -15 -11 -21 7 -11 -40 -7 -106 9 -14 3 -22
3 -19 -1 3 -3 34 -12 70 -19 42 -9 63 -18 61 -27 -2 -8 5 -11 23 -8 14 3 25 1
25 -3 0 -5 -11 -9 -25 -9 -16 0 -23 -4 -19 -14 3 -8 -3 -16 -15 -19 -12 -3
-21 1 -24 12 -2 9 -21 22 -42 30 -32 11 -39 11 -46 0 -7 -11 -9 -11 -9 2 0 9
-7 20 -16 23 -21 8 -65 -4 -58 -15 3 -5 -1 -11 -8 -14 -19 -7 -20 -45 -2 -52
12 -4 12 -8 -3 -20 -10 -8 -12 -12 -5 -8 6 3 12 2 12 -4 0 -5 -6 -11 -12 -14
-10 -3 -10 -7 1 -20 9 -11 10 -17 2 -17 -6 0 -11 -5 -11 -12 0 -6 3 -8 6 -5 4
3 15 2 25 -4 15 -8 19 -6 19 8 0 15 2 15 14 -3 10 -13 11 -23 4 -31 -6 -7 -8
-23 -5 -35 3 -13 1 -32 -3 -43 -8 -19 -9 -19 -9 2 -1 16 -6 21 -16 17 -11 -5
-13 -10 -5 -19 8 -9 7 -14 -2 -18 -7 -3 -2 -6 12 -6 24 -1 24 -1 4 -16 -31
-21 -27 -77 6 -85 14 -3 25 -10 26 -15 5 -40 19 -75 32 -80 13 -5 14 -8 3 -14
-16 -10 70 -46 91 -38 9 4 7 6 -4 6 -10 1 -18 6 -18 12 0 6 7 8 16 5 8 -3 12
-2 9 4 -3 5 3 18 15 30 20 20 20 20 20 0 0 -11 6 -20 13 -20 9 0 8 -3 -1 -9
-10 -6 -3 -10 22 -15 20 -4 34 -11 31 -17 -4 -5 -14 -5 -27 2 -14 8 -23 8 -31
0 -8 -8 -8 -11 1 -11 7 0 12 -6 12 -14 0 -8 6 -17 13 -19 6 -3 2 -6 -10 -6
-16 -1 -21 -6 -17 -16 4 -8 1 -15 -5 -15 -6 0 -11 -7 -11 -15 0 -8 -6 -15 -13
-15 -26 0 -16 -38 13 -48 18 -7 28 -17 27 -28 -1 -11 6 -20 17 -22 13 -3 17 0
13 10 -3 8 0 15 6 15 7 0 17 2 22 3 19 5 35 0 35 -10 0 -5 -10 -10 -21 -10
-16 0 -20 -5 -16 -20 4 -17 1 -19 -18 -14 -26 7 -43 -12 -25 -29 9 -9 11 -8 8
3 -2 8 4 15 12 15 8 0 14 -5 13 -12 -2 -6 6 -15 17 -18 26 -8 80 3 80 16 0 6
10 8 23 4 18 -5 19 -4 7 5 -11 9 -12 13 -2 17 18 7 15 21 -7 28 -20 6 -35 55
-17 55 6 1 0 10 -14 22 l-25 21 25 -6 c24 -6 24 -5 6 8 -11 8 -30 15 -42 15
-13 0 -26 5 -29 11 -8 12 47 8 56 -5 4 -5 16 0 28 11 l20 19 -37 -2 c-20 -2
-27 0 -16 2 12 3 24 14 27 26 3 11 10 17 15 14 6 -3 17 -3 25 0 16 6 12 33 -7
46 -7 4 -4 9 6 13 9 4 14 14 11 24 -2 10 3 25 12 35 9 9 12 16 6 16 -6 0 -11
7 -11 15 0 8 -7 15 -15 15 -11 0 -7 8 12 28 27 27 45 71 24 57 -7 -3 -11 2
-11 14 0 15 4 19 18 14 15 -6 16 -5 2 12 -11 14 -12 19 -2 22 6 3 10 9 6 14
-3 5 0 9 6 9 7 0 9 16 5 45 -3 26 -1 54 5 64 11 21 -5 140 -21 156 -5 5 -40 9
-77 8 l-67 -1 38 15 c45 18 47 29 6 38 -23 5 -28 9 -18 16 11 7 9 8 -6 7 -11
-1 -54 -4 -95 -8z m65 -31 c-11 -4 -31 -8 -45 -8 -14 1 -19 3 -12 6 6 2 10 8
8 12 -3 4 12 5 32 2 30 -3 33 -5 17 -12z m-148 -115 c-3 -3 -12 -4 -19 -1 -8
3 -5 6 6 6 11 1 17 -2 13 -5z m83 -9 c0 -8 -2 -15 -4 -15 -2 0 -6 7 -10 15 -3
8 -1 15 4 15 6 0 10 -7 10 -15z m-198 -55 c5 -36 -5 -39 -20 -6 -8 19 -8 26 1
30 7 2 13 5 13 5 1 1 4 -12 6 -29z m188 -21 c0 -5 -7 -9 -15 -9 -18 0 -20 -17
-3 -22 7 -3 8 -10 4 -17 -7 -11 -10 -11 -18 0 -5 9 -6 4 -2 -13 4 -18 2 -28
-5 -28 -6 0 -11 -12 -11 -27 l0 -27 -20 22 c-20 21 -18 52 4 52 6 0 12 9 13
20 3 38 53 85 53 49z m-149 -52 c-1 -28 -4 -54 -6 -55 -2 -2 -12 1 -22 7 -10
6 -13 11 -7 11 6 0 11 6 12 13 0 6 3 26 6 42 2 17 5 34 5 39 1 5 4 6 8 2 4 -3
6 -30 4 -59z m174 23 c3 -5 1 -10 -4 -10 -6 0 -11 5 -11 10 0 6 2 10 4 10 3 0
8 -4 11 -10z m15 -60 c0 -5 -7 -10 -15 -10 -8 0 -15 5 -15 10 0 6 7 10 15 10
8 0 15 -4 15 -10z m-12 -115 c-1 -14 -6 -25 -11 -25 -5 0 -6 7 -3 16 3 9 6 20
6 25 0 5 2 9 5 9 3 0 4 -11 3 -25z m-8 -80 c-7 -8 -19 -15 -26 -15 -8 0 -14 7
-14 15 0 10 10 15 26 15 22 0 25 -2 14 -15z m-160 -60 c0 -8 5 -17 11 -21 8
-5 10 2 6 22 -5 27 -4 27 9 9 8 -10 14 -27 14 -37 0 -17 -2 -18 -30 -3 -18 10
-30 23 -30 36 0 11 5 17 10 14 6 -3 10 -12 10 -20z m220 -37 c0 -10 -4 -18
-10 -18 -5 0 -9 5 -7 12 1 8 -9 11 -30 10 -17 -2 -34 2 -38 8 -5 9 -1 10 16 5
22 -7 23 -7 9 11 -14 18 -14 18 8 0 22 -19 22 -19 22 4 0 23 0 23 15 4 8 -10
15 -27 15 -36z m-145 22 c3 -5 1 -10 -4 -10 -6 0 -11 5 -11 10 0 6 2 10 4 10
3 0 8 -4 11 -10z m105 -40 c0 -5 -7 -7 -15 -4 -8 4 -15 8 -15 10 0 2 7 4 15 4
8 0 15 -4 15 -10z m10 -56 c0 -2 -7 -4 -15 -4 -8 0 -15 4 -15 10 0 5 7 7 15 4
8 -4 15 -8 15 -10z"/>
<path d="M5950 8735 c0 -6 29 -21 89 -45 29 -11 50 -16 46 -10 -3 5 -10 10
-16 10 -5 0 -32 11 -61 25 -55 27 -58 28 -58 20z"/>
<path d="M5967 8699 c7 -7 15 -10 18 -7 3 3 -2 9 -12 12 -14 6 -15 5 -6 -5z"/>
<path d="M7526 8648 c-46 -17 -82 -38 -66 -38 12 -1 11 -3 -3 -11 -9 -6 -15
-14 -12 -20 4 -5 2 -9 -4 -9 -5 0 -13 5 -16 10 -3 6 -11 10 -17 10 -6 0 -8 -3
-5 -7 4 -3 -9 -17 -29 -31 -31 -21 -35 -28 -30 -53 3 -15 1 -31 -4 -34 -6 -3
-10 -13 -10 -20 0 -8 -14 -43 -31 -77 -35 -71 -59 -142 -59 -175 0 -12 -4 -23
-9 -25 -5 -1 -12 -30 -15 -64 -3 -33 -12 -74 -21 -91 -9 -19 -15 -60 -16 -109
-1 -82 1 -100 14 -121 5 -7 6 -17 3 -21 -2 -4 -2 -13 2 -19 11 -17 104 -62
191 -92 45 -15 79 -30 75 -34 -12 -11 46 -19 92 -12 32 4 44 10 40 20 -2 8 4
16 17 19 19 5 20 8 7 17 -12 8 -11 9 6 4 15 -4 24 0 28 11 4 11 2 15 -7 11
-11 -4 -12 2 -3 34 5 21 14 39 18 39 11 0 10 -7 -3 -32 -6 -11 -8 -22 -6 -25
13 -12 30 46 28 94 -1 36 5 65 19 93 11 21 20 45 20 53 0 7 11 41 25 75 28 68
51 197 54 300 1 14 5 21 12 16 8 -5 8 -1 0 14 -6 11 -11 37 -11 57 0 26 -3 34
-12 29 -9 -5 -8 -2 1 10 11 13 11 20 3 28 -7 7 -12 20 -12 30 0 44 -146 156
-184 142 -8 -3 -17 -1 -21 5 -7 13 -11 13 -49 -1z"/>
<path d="M6255 7780 c3 -5 8 -10 11 -10 2 0 4 5 4 10 0 6 -5 10 -11 10 -5 0
-7 -4 -4 -10z"/>
<path d="M6166 7765 c4 -8 8 -15 10 -15 2 0 4 7 4 15 0 8 -4 15 -10 15 -5 0
-7 -7 -4 -15z"/>
<path d="M7174 7663 c6 -14 5 -16 -5 -5 -20 19 -34 14 -16 -6 21 -23 22 -39 2
-22 -19 16 -19 1 0 -24 8 -10 12 -22 10 -26 -10 -16 -13 -60 -4 -60 6 0 8 -36
5 -90 -2 -49 0 -87 5 -85 4 3 13 -3 18 -14 15 -27 14 -36 -3 -22 -11 9 -12 6
-8 -14 2 -14 10 -25 16 -25 6 0 12 -10 13 -22 1 -11 6 -24 11 -27 4 -3 14 -22
22 -41 7 -19 19 -42 27 -51 12 -14 12 -17 -2 -23 -13 -4 -13 -9 -3 -25 9 -15
9 -25 0 -46 -10 -21 -9 -27 4 -32 9 -3 11 -8 6 -12 -6 -4 -2 -16 9 -30 10 -13
19 -18 19 -11 0 7 8 9 19 5 14 -4 21 0 26 15 7 22 30 27 39 8 3 -7 4 0 1 16
-5 25 -4 28 14 23 25 -6 39 12 20 24 -11 7 -11 9 -1 9 7 0 11 4 7 9 -3 5 -1
12 5 16 5 3 10 1 10 -4 0 -6 5 -11 11 -11 6 0 9 7 5 15 -3 9 0 15 8 15 7 0 21
17 32 38 10 20 21 39 24 42 9 9 29 74 36 118 4 23 11 42 16 42 6 0 8 6 5 14
-3 8 -3 17 1 20 3 4 7 30 7 59 1 29 4 59 6 67 3 8 4 12 2 8 -11 -19 -23 -5
-23 25 0 31 -2 33 -65 51 -36 10 -75 16 -86 13 -12 -3 -32 -1 -43 5 -19 10
-20 10 -7 -5 7 -10 9 -17 4 -17 -16 0 -48 28 -48 42 0 7 -8 12 -17 10 -9 -1
-19 2 -23 8 -10 16 28 12 65 -7 37 -18 105 -29 96 -15 -3 5 -26 12 -52 16 -26
3 -52 10 -58 15 -6 4 -33 16 -60 25 -39 13 -51 13 -58 4 -6 -10 -12 -10 -29 0
-20 13 -21 12 -15 -5z m276 -93 c0 -13 -11 -13 -30 0 -12 8 -11 10 8 10 12 0
22 -4 22 -10z m-34 -15 c10 -8 14 -15 8 -15 -5 0 -19 7 -30 15 -10 8 -14 15
-8 15 5 0 19 -7 30 -15z m-41 -5 c8 -13 -5 -13 -25 0 -13 8 -13 10 2 10 9 0
20 -4 23 -10z m92 -16 c-3 -3 -12 -4 -19 -1 -8 3 -5 6 6 6 11 1 17 -2 13 -5z
m-227 -284 c0 -11 -2 -20 -4 -20 -2 0 -6 9 -9 20 -3 11 -1 20 4 20 5 0 9 -9 9
-20z"/>
<path d="M6187 7655 c-9 -6 -14 -15 -10 -18 6 -7 -12 -10 -21 -4 -2 1 -13 -6
-24 -16 -12 -11 -26 -15 -37 -11 -13 5 -16 4 -11 -4 4 -8 0 -12 -11 -12 -11 0
-14 -3 -7 -8 16 -11 -7 -80 -25 -74 -8 3 -11 0 -7 -6 9 -14 -19 -23 -33 -9 -8
8 -11 8 -11 0 0 -6 6 -13 12 -15 7 -3 13 -19 14 -37 2 -30 0 -31 -15 -17 -10
9 -22 16 -27 16 -5 0 1 -8 14 -18 20 -15 24 -29 27 -90 2 -48 -1 -70 -8 -65
-6 3 -7 1 -3 -5 4 -7 14 -12 23 -12 10 0 13 -6 9 -16 -3 -8 -2 -12 4 -9 6 3
10 3 11 -2 0 -4 2 -18 3 -31 2 -16 -1 -21 -12 -17 -10 4 -12 1 -7 -12 7 -16 9
-55 6 -142 -1 -23 -2 -23 -19 -8 -10 10 -25 17 -33 17 -11 -1 -10 -3 3 -10 10
-6 14 -18 11 -30 -3 -11 -9 -17 -14 -14 -5 3 -9 -2 -9 -10 0 -9 6 -16 13 -16
8 0 7 -4 -3 -10 -10 -6 -11 -10 -2 -10 6 0 12 -8 12 -17 0 -10 8 -27 17 -38
15 -19 15 -19 8 10 -5 24 -4 28 6 18 7 -7 17 -13 21 -13 4 0 7 6 6 13 -2 6 4
11 12 9 12 -3 13 -1 3 9 -7 7 -13 19 -13 26 0 7 6 12 13 11 7 -2 13 9 15 25 2
20 8 27 18 23 9 -4 14 1 14 15 0 11 -7 22 -14 25 -12 4 -8 12 15 35 16 15 29
37 29 48 0 10 7 22 16 25 8 3 12 10 9 16 -3 5 -1 10 5 10 7 0 9 8 5 19 -8 27
10 35 31 14 17 -17 18 -17 11 0 -4 11 -2 17 7 17 16 0 26 30 26 77 0 25 4 31
15 27 10 -4 15 0 15 11 0 9 5 13 10 10 6 -3 10 -1 10 4 0 6 -4 11 -9 11 -19 0
-16 45 3 55 21 11 24 30 26 133 1 85 -6 105 -33 96 -12 -4 -24 -11 -26 -16 -1
-5 -10 -3 -20 5 -25 22 -45 26 -64 12z m-137 -195 c0 -5 -2 -10 -4 -10 -3 0
-8 5 -11 10 -3 6 -1 10 4 10 6 0 11 -4 11 -10z m162 -152 c-7 -7 -12 -8 -12
-2 0 14 12 26 19 19 2 -3 -1 -11 -7 -17z"/>
<path d="M6041 7534 c0 -11 3 -14 6 -6 3 7 2 16 -1 19 -3 4 -6 -2 -5 -13z"/>
<path d="M5966 7399 c12 -13 20 -16 22 -9 3 7 -2 16 -9 21 -25 16 -32 9 -13
-12z"/>
<path d="M5900 7381 c0 -11 5 -23 12 -27 7 -5 9 -1 6 13 -4 17 -2 19 15 15 14
-3 18 -1 13 6 -12 20 -46 14 -46 -7z"/>
<path d="M5950 7340 c0 -5 7 -10 15 -10 8 0 15 5 15 10 0 6 -7 10 -15 10 -8 0
-15 -4 -15 -10z"/>
<path d="M4820 7325 c7 -8 8 -15 2 -15 -5 0 -12 -9 -15 -20 -3 -13 0 -20 8
-20 8 0 16 -8 18 -17 3 -13 5 -12 6 5 1 19 5 22 24 17 21 -7 21 -6 -2 11 -23
17 -23 18 -5 25 17 7 17 8 -3 8 -13 1 -23 6 -23 11 0 6 -5 10 -11 10 -8 0 -8
-5 1 -15z"/>
<path d="M5931 7324 c0 -11 3 -14 6 -6 3 7 2 16 -1 19 -3 4 -6 -2 -5 -13z"/>
<path d="M5860 7310 c0 -5 5 -10 11 -10 5 0 7 5 4 10 -3 6 -8 10 -11 10 -2 0
-4 -4 -4 -10z"/>
<path d="M4777 7285 c-4 -8 -2 -17 3 -20 6 -4 10 3 10 14 0 25 -6 27 -13 6z"/>
<path d="M5850 7280 c9 -16 8 -22 -5 -27 -13 -5 -14 -7 -3 -14 8 -6 9 -12 3
-16 -13 -10 -17 -33 -6 -33 5 0 11 7 15 15 3 8 12 15 21 15 8 0 15 4 15 10 0
5 -7 7 -15 4 -8 -4 -15 -1 -15 5 0 7 7 14 15 17 13 5 12 10 -6 25 -28 24 -32
24 -19 -1z"/>
<path d="M5952 7233 c-6 -16 -11 -22 -11 -15 -1 6 -6 12 -12 12 -5 0 -7 -5 -4
-10 4 -6 1 -9 -7 -8 -19 4 -20 -71 -1 -97 14 -17 15 -18 9 -1 -5 13 -2 17 8
13 21 -8 25 14 9 46 -7 15 -9 27 -4 27 5 0 11 -6 14 -12 2 -7 4 0 4 16 0 15 6
32 13 36 8 5 9 10 2 14 -6 3 -15 -6 -20 -21z"/>
<path d="M4790 7241 c0 -6 4 -13 10 -16 6 -3 7 1 4 9 -7 18 -14 21 -14 7z"/>
<path d="M4847 7233 c-13 -12 -7 -40 8 -40 11 0 12 4 4 13 -6 7 -8 18 -4 24 7
11 2 14 -8 3z"/>
<path d="M7190 7216 c0 -2 8 -10 18 -17 15 -13 16 -12 3 4 -13 16 -21 21 -21
13z"/>
<path d="M4814 7194 c3 -9 6 -20 6 -25 0 -4 7 -6 16 -2 16 6 16 7 1 18 -9 7
-14 15 -10 18 3 4 1 7 -6 7 -8 0 -11 -6 -7 -16z"/>
<path d="M3840 7180 c0 -5 5 -10 11 -10 5 0 7 5 4 10 -3 6 -8 10 -11 10 -2 0
-4 -4 -4 -10z"/>
<path d="M7215 7171 c-3 -6 -11 -8 -18 -5 -8 3 -13 -3 -13 -15 0 -22 21 -17
31 7 6 15 8 15 15 -3 7 -16 9 -17 9 -3 1 20 -15 33 -24 19z"/>
<path d="M5015 7110 c-3 -5 1 -10 10 -10 9 0 13 5 10 10 -3 6 -8 10 -10 10 -2
0 -7 -4 -10 -10z"/>
<path d="M6130 7069 c0 -5 5 -7 10 -4 6 3 10 8 10 11 0 2 -4 4 -10 4 -5 0 -10
-5 -10 -11z"/>
<path d="M4840 7060 c0 -5 5 -10 11 -10 5 0 7 5 4 10 -3 6 -8 10 -11 10 -2 0
-4 -4 -4 -10z"/>
<path d="M6008 7043 c7 -3 16 -2 19 1 4 3 -2 6 -13 5 -11 0 -14 -3 -6 -6z"/>
<path d="M4985 7000 c-3 -5 1 -10 10 -10 9 0 13 5 10 10 -3 6 -8 10 -10 10 -2
0 -7 -4 -10 -10z"/>
<path d="M5730 6858 c0 -9 7 -19 16 -22 25 -10 27 -1 4 19 -17 15 -20 16 -20
3z"/>
<path d="M5770 6861 c0 -6 4 -13 10 -16 6 -3 7 1 4 9 -7 18 -14 21 -14 7z"/>
<path d="M5700 6850 c0 -5 5 -10 11 -10 5 0 7 5 4 10 -3 6 -8 10 -11 10 -2 0
-4 -4 -4 -10z"/>
<path d="M5660 6824 c0 -19 8 -28 36 -40 35 -15 114 -17 114 -3 0 18 -48 39
-88 39 -35 0 -43 3 -38 15 3 9 0 15 -9 15 -9 0 -15 -10 -15 -26z"/>
<path d="M4149 6838 c-1 -2 -2 -20 -3 -41 -2 -23 0 -33 5 -25 7 10 9 9 9 -4 0
-10 -4 -18 -10 -18 -5 0 -10 -7 -10 -15 0 -24 17 -17 24 10 8 31 26 24 26 -10
0 -17 -4 -23 -14 -19 -20 8 -29 -13 -16 -33 10 -15 11 -15 6 -1 -3 10 2 18 13
21 28 7 32 55 10 99 -16 31 -35 48 -40 36z"/>
<path d="M4086 6762 c-3 -6 -2 -14 4 -17 6 -4 8 -16 4 -28 -6 -19 -5 -20 10
-8 19 16 20 22 3 46 -9 11 -16 14 -21 7z"/>
<path d="M1430 6723 c-19 -13 -34 -26 -32 -29 1 -2 2 -5 1 -6 -11 -39 -18
-108 -11 -122 3 -4 8 -2 13 5 6 9 9 -2 9 -31 2 -86 25 -179 67 -270 17 -36 34
-76 38 -89 4 -13 20 -46 36 -73 16 -27 29 -51 29 -53 0 -3 20 -31 44 -62 24
-32 64 -89 88 -128 56 -87 158 -193 218 -226 49 -26 114 -37 125 -20 3 6 15
11 26 11 10 0 19 7 19 15 0 8 8 15 18 15 11 0 24 11 30 25 13 29 10 31 -12 9
-9 -8 -16 -11 -16 -6 0 5 6 15 14 22 8 6 12 18 10 25 -3 8 6 21 21 31 36 23
50 51 34 70 -9 11 -8 18 6 34 9 10 14 24 10 30 -4 6 4 24 18 38 38 40 27 83
-21 81 -24 0 -25 -1 -7 -9 16 -7 17 -9 3 -9 -32 -2 -28 17 8 38 20 12 34 25
30 28 -3 3 -14 -1 -23 -9 -10 -9 -28 -19 -40 -22 -17 -5 -21 -3 -19 11 2 10
14 21 27 25 18 6 15 7 -11 4 l-35 -5 45 22 c43 20 44 21 20 28 -14 4 -19 7
-12 8 18 1 68 41 53 41 -7 0 -9 5 -6 10 3 6 2 10 -4 10 -5 0 -13 -4 -16 -10
-3 -5 -1 -10 6 -10 7 0 4 -7 -7 -15 -10 -8 -28 -14 -39 -14 -16 0 -13 3 10 15
l30 14 -30 -5 c-27 -4 -26 -2 13 17 23 12 42 26 42 31 0 4 -6 5 -12 1 -10 -6
-10 -4 0 7 14 15 16 33 3 25 -4 -3 -18 3 -30 13 -14 13 -18 22 -11 26 7 4 4
13 -10 25 -11 9 -20 28 -21 41 0 13 -3 18 -6 12 -2 -7 -9 -13 -14 -13 -6 0 -6
8 1 19 13 25 13 34 0 26 -5 -3 -10 -2 -10 2 0 11 -60 77 -60 66 0 -4 -5 0 -11
10 -6 9 -14 15 -19 12 -5 -3 -12 0 -16 6 -4 8 -3 9 4 5 18 -11 14 10 -4 28 -8
9 -12 16 -7 16 4 0 0 7 -10 15 -11 7 -26 11 -35 8 -10 -4 -14 -3 -10 2 11 12
-15 32 -53 40 -66 13 -71 16 -59 30 15 18 -1 26 -42 20 -97 -14 -126 -14 -131
-2 -3 10 4 12 27 10 l31 -3 -30 10 c-16 6 -52 11 -80 12 -27 1 -42 3 -32 6 9
2 17 8 17 13 0 6 -9 7 -21 4 -12 -4 -19 -3 -16 2 9 14 -30 43 -57 43 -14 0
-27 -6 -30 -12 -5 -10 -7 -10 -12 0 -8 16 -13 15 -54 -15z m110 13 c0 -2 -7
-7 -16 -10 -8 -3 -12 -2 -9 4 6 10 25 14 25 6z m690 -786 c0 -5 -5 -10 -11
-10 -5 0 -7 5 -4 10 3 6 8 10 11 10 2 0 4 -4 4 -10z"/>
<path d="M7139 6708 c11 -15 11 -18 -2 -18 -8 0 -18 6 -21 13 -3 6 -4 -1 0
-17 4 -25 3 -28 -9 -18 -11 10 -17 9 -27 -3 -10 -12 -16 -13 -26 -4 -11 9 -14
8 -14 -4 0 -9 -6 -20 -14 -24 -18 -11 -36 -47 -37 -75 l0 -23 -10 24 c-6 16
-6 28 2 37 6 8 9 23 6 33 -3 11 0 22 7 24 8 3 7 8 -2 19 -10 13 -10 17 0 21 7
2 10 8 6 12 -13 14 -33 -20 -37 -65 -2 -25 -7 -47 -11 -50 -4 -3 -13 -32 -19
-64 -6 -33 -15 -62 -20 -65 -4 -3 -11 -13 -14 -21 -3 -8 -6 -1 -6 17 -1 17 3
34 9 38 5 3 6 13 3 23 -6 14 -8 13 -13 -7 -3 -14 -12 -26 -20 -29 -12 -3 -12
-2 -1 6 8 6 11 17 6 32 -6 20 -9 21 -17 7 -13 -24 -26 -21 -31 6 -2 12 -4 8
-3 -10 1 -21 -2 -29 -9 -23 -6 5 -10 -3 -11 -23 -1 -30 -14 -93 -29 -144 -5
-17 -3 -23 8 -23 8 0 18 -7 21 -16 9 -22 8 -26 -6 -18 -7 4 -8 3 -4 -5 4 -6
12 -9 17 -6 5 4 9 -3 9 -13 0 -25 37 -36 43 -13 4 14 5 14 6 -1 0 -10 9 -19
19 -19 9 -1 4 -5 -13 -9 l-30 -7 24 -10 c15 -6 25 -19 27 -35 4 -38 41 -77 70
-73 13 1 24 -2 24 -6 0 -5 -6 -9 -14 -9 -24 0 -30 -22 -11 -37 11 -7 14 -13 6
-13 -21 0 -7 -23 17 -27 15 -2 22 2 22 13 0 10 6 14 14 11 8 -3 21 4 30 18 20
30 20 39 1 32 -8 -4 -17 -2 -20 3 -3 5 9 10 27 12 33 3 49 33 18 33 -16 0 -40
19 -40 31 0 3 6 2 13 -4 10 -9 19 -8 34 3 27 19 41 74 22 86 -10 6 -11 9 -1 9
6 0 21 9 32 20 11 11 26 20 34 20 21 0 40 58 39 117 -1 29 2 53 7 53 5 0 7 20
5 45 -3 36 -1 45 12 45 9 0 13 6 9 15 -3 8 -1 15 4 15 6 0 10 -6 11 -12 0 -7
4 -3 9 10 5 12 7 29 3 38 -3 9 0 20 8 26 11 8 10 9 -3 4 -11 -3 -18 0 -18 7 0
7 -11 0 -24 -15 -27 -32 -44 -36 -42 -11 0 10 -6 18 -14 18 -10 0 -15 10 -15
27 0 15 -9 35 -19 45 -18 16 -19 16 -7 1z m-164 -188 c-3 -5 -11 -10 -16 -10
-6 0 -7 5 -4 10 3 6 11 10 16 10 6 0 7 -4 4 -10z m-147 -221 c19 -23 20 -29 8
-29 -9 0 -16 5 -16 10 0 6 -9 19 -20 30 -12 12 -15 20 -7 19 6 0 22 -13 35
-30z m62 -54 c0 -5 -5 -3 -10 5 -5 8 -10 20 -10 25 0 6 5 3 10 -5 5 -8 10 -19
10 -25z"/>
<path d="M7172 6700 c7 -11 17 -20 22 -20 5 0 1 9 -9 20 -10 11 -20 20 -22 20
-2 0 2 -9 9 -20z"/>
<path d="M4107 6697 c-3 -8 -1 -20 4 -28 7 -11 9 -10 9 4 0 11 5 15 11 11 7
-4 10 -1 7 6 -6 19 -25 23 -31 7z"/>
<path d="M7240 6685 c0 -8 2 -15 4 -15 2 0 6 7 10 15 3 8 1 15 -4 15 -6 0 -10
-7 -10 -15z"/>
<path d="M6931 6680 c0 -8 4 -22 9 -30 12 -18 12 -2 0 25 -6 13 -9 15 -9 5z"/>
<path d="M1876 6632 c-2 -4 4 -8 15 -8 10 0 19 4 19 8 0 4 -6 8 -14 8 -8 0
-17 -4 -20 -8z"/>
<path d="M4059 6617 c6 -8 8 -17 4 -20 -3 -4 -1 -7 5 -7 14 0 14 2 6 24 -3 9
-11 16 -16 16 -7 0 -6 -5 1 -13z"/>
<path d="M6910 6595 c0 -8 4 -15 10 -15 5 0 7 7 4 15 -4 8 -8 15 -10 15 -2 0
-4 -7 -4 -15z"/>
<path d="M6900 6555 c0 -8 4 -15 10 -15 5 0 7 7 4 15 -4 8 -8 15 -10 15 -2 0
-4 -7 -4 -15z"/>
<path d="M6767 6443 c-11 -13 -16 -27 -13 -30 3 -4 6 -1 6 6 0 7 4 10 9 6 5
-3 13 4 16 16 10 30 3 31 -18 2z"/>
<path d="M6725 6440 c-3 -5 -1 -10 4 -10 6 0 11 5 11 10 0 6 -2 10 -4 10 -3 0
-8 -4 -11 -10z"/>
<path d="M4108 6413 c7 -3 16 -2 19 1 4 3 -2 6 -13 5 -11 0 -14 -3 -6 -6z"/>
<path d="M4130 6296 c0 -2 7 -9 15 -16 9 -7 15 -8 15 -2 0 5 -7 12 -15 16 -8
3 -15 4 -15 2z"/>
<path d="M4182 6264 c10 -10 20 -15 24 -12 3 4 -5 12 -18 18 -22 12 -22 12 -6
-6z"/>
<path d="M6620 6196 c0 -2 7 -7 16 -10 8 -3 12 -2 9 4 -6 10 -25 14 -25 6z"/>
<path d="M6795 6060 c-3 -5 -1 -10 4 -10 6 0 11 5 11 10 0 6 -2 10 -4 10 -3 0
-8 -4 -11 -10z"/>
<path d="M2220 5910 c0 -5 5 -10 10 -10 6 0 10 5 10 10 0 6 -4 10 -10 10 -5 0
-10 -4 -10 -10z"/>
<path d="M2207 5863 c-12 -12 -7 -22 8 -17 8 4 15 10 15 15 0 11 -14 12 -23 2z"/>
<path d="M2238 5638 c6 -6 29 -11 51 -12 23 0 41 -5 41 -10 0 -4 -8 -6 -18 -4
-15 4 -18 1 -14 -19 2 -13 9 -26 15 -30 6 -3 7 -1 3 5 -4 7 -4 12 1 12 4 0 16
13 25 29 13 24 13 29 2 24 -8 -3 -14 -1 -14 3 0 5 -23 10 -51 11 -36 1 -49 -1
-41 -9z"/>
<path d="M2406 5574 c18 -26 28 -27 18 -1 -3 8 -12 18 -20 21 -11 4 -11 0 2
-20z"/>
<path d="M2390 5544 c0 -8 5 -12 10 -9 6 4 8 11 5 16 -9 14 -15 11 -15 -7z"/>
<path d="M2525 5460 c3 -5 8 -10 11 -10 2 0 4 5 4 10 0 6 -5 10 -11 10 -5 0
-7 -4 -4 -10z"/>
<path d="M4576 5434 c-9 -24 -8 -26 14 -14 11 6 18 15 15 21 -9 14 -22 11 -29
-7z"/>
<path d="M4149 5366 c12 -7 34 -11 47 -8 39 7 27 18 -23 19 -44 2 -46 1 -24
-11z"/>
<path d="M4127 5339 c4 -14 1 -18 -10 -13 -10 3 -15 0 -13 -8 3 -21 16 -38 29
-38 7 0 3 7 -7 15 -29 22 -13 18 29 -6 39 -23 42 -39 3 -18 -21 11 -22 11 -9
-4 19 -24 6 -21 -36 7 -36 25 -66 25 -57 1 5 -12 75 -55 90 -55 4 0 -4 9 -17
20 l-24 20 28 -11 c15 -7 27 -16 27 -22 0 -5 11 -6 24 -3 14 3 28 2 31 -4 3
-5 -1 -10 -9 -10 -9 0 -14 -8 -13 -21 1 -17 3 -18 13 -5 8 11 14 12 22 4 8 -8
10 -4 9 16 -1 15 -9 31 -17 36 -8 5 -10 10 -4 10 6 0 10 10 9 23 -2 15 -8 21
-21 20 -13 -1 -20 5 -21 18 -2 17 1 18 12 9 15 -13 35 -6 35 12 0 7 -15 9 -40
5 -22 -3 -40 -2 -40 3 0 4 -6 10 -14 13 -10 4 -12 0 -9 -14z m38 -29 c3 -5 2
-10 -4 -10 -5 0 -13 5 -16 10 -3 6 -2 10 4 10 5 0 13 -4 16 -10z m25 -70 c0
-5 -4 -10 -10 -10 -5 0 -10 5 -10 10 0 6 5 10 10 10 6 0 10 -4 10 -10z"/>
<path d="M3747 5319 c7 -7 15 -10 18 -7 3 3 -2 9 -12 12 -14 6 -15 5 -6 -5z"/>
<path d="M3850 5299 c0 -6 -9 -8 -22 -3 -27 8 -23 2 11 -16 18 -9 22 -9 16 0
-5 9 -1 10 15 5 17 -5 21 -4 15 6 -6 9 -3 10 11 4 23 -9 65 -8 76 3 4 4 -4 7
-17 7 -14 0 -25 -4 -25 -8 0 -4 -9 -3 -19 3 -26 13 -61 13 -61 -1z"/>
<path d="M3799 5277 c15 -19 1 -23 -17 -5 -9 9 -12 8 -12 -7 0 -15 -3 -16 -12
-7 -7 7 -17 12 -22 12 -6 -1 3 -12 19 -25 26 -22 28 -25 10 -26 -11 -1 -23 -1
-27 0 -5 0 -8 -3 -8 -8 0 -5 25 -8 55 -8 l55 1 -30 19 c-39 24 -39 32 0 12 17
-9 30 -11 30 -6 0 5 19 8 43 6 l42 -4 -25 19 c-28 22 -40 25 -40 9 0 -6 -17 0
-37 12 -28 17 -34 18 -24 6z"/>
<path d="M3915 5270 c-18 -8 -18 -9 5 -9 14 -1 36 -4 50 -7 l25 -5 -25 15
c-29 18 -28 17 -55 6z"/>
<path d="M3990 5270 c8 -5 20 -10 25 -10 6 0 3 5 -5 10 -8 5 -19 10 -25 10 -5
0 -3 -5 5 -10z"/>
<path d="M2700 5255 c0 -8 5 -15 10 -15 6 0 10 7 10 15 0 8 -4 15 -10 15 -5 0
-10 -7 -10 -15z"/>
<path d="M3931 5246 c2 -2 15 -9 29 -16 23 -12 24 -12 11 3 -7 10 -20 17 -29
17 -8 0 -13 -2 -11 -4z"/>
<path d="M2360 5195 c7 -8 17 -15 22 -15 5 0 3 7 -6 15 -8 8 -18 15 -22 15 -3
0 -1 -7 6 -15z"/>
<path d="M4136 5181 c-15 -6 -16 -9 -5 -13 8 -3 20 1 27 8 14 15 7 17 -22 5z"/>
<path d="M3805 5170 c3 -5 10 -10 16 -10 5 0 9 5 9 10 0 6 -7 10 -16 10 -8 0
-12 -4 -9 -10z"/>
<path d="M4024 5143 c8 -8 56 -11 51 -3 -3 4 -16 8 -30 8 -14 0 -24 -3 -21 -5z"/>
<path d="M4108 5133 c-8 -10 -6 -13 6 -13 9 0 16 -5 16 -11 0 -5 -4 -8 -9 -4
-5 3 -12 1 -15 -4 -4 -6 9 -9 29 -8 l36 2 -26 23 c-14 12 -22 22 -16 22 5 0
13 -4 16 -10 3 -5 11 -10 16 -10 6 0 7 5 4 10 -10 15 4 12 44 -11 l36 -21 -25
23 c-20 18 -21 21 -5 15 11 -5 29 -10 40 -13 l20 -4 -20 13 c-26 17 -133 18
-147 1z"/>
<path d="M4027 5119 c7 -7 15 -10 18 -7 3 3 -2 9 -12 12 -14 6 -15 5 -6 -5z"/>
<path d="M3800 5090 c0 -3 9 -11 20 -18 17 -10 20 -10 20 3 0 9 6 12 15 9 8
-4 15 -1 15 5 0 6 -15 10 -35 8 -19 -1 -35 -4 -35 -7z"/>
<path d="M3435 5080 c3 -5 8 -10 11 -10 2 0 4 5 4 10 0 6 -5 10 -11 10 -5 0
-7 -4 -4 -10z"/>
<path d="M3588 5079 c7 -9 11 -23 10 -30 -2 -8 5 -13 14 -13 10 1 15 -2 12 -7
-3 -5 2 -9 11 -9 10 0 13 5 9 12 -5 8 -3 8 7 2 21 -13 60 -12 49 1 -14 17 33
13 56 -5 11 -8 8 -2 -6 14 -26 29 -68 57 -56 37 7 -11 -53 -9 -73 3 -6 4 -11
2 -11 -5 0 -8 -5 -7 -17 2 -16 13 -17 12 -5 -2z m132 -19 c0 -5 -2 -10 -4 -10
-3 0 -8 5 -11 10 -3 6 -1 10 4 10 6 0 11 -4 11 -10z m-45 -10 c3 -5 1 -10 -4
-10 -6 0 -11 5 -11 10 0 6 2 10 4 10 3 0 8 -4 11 -10z"/>
<path d="M4135 5080 c-3 -5 1 -10 10 -10 9 0 13 5 10 10 -3 6 -8 10 -10 10 -2
0 -7 -4 -10 -10z"/>
<path d="M3762 5055 c15 -16 30 -26 33 -23 4 3 -9 16 -27 28 l-33 23 27 -28z"/>
<path d="M4004 5064 c1 -8 6 -17 11 -21 4 -5 5 -2 0 6 -6 10 -4 13 6 9 8 -3
19 0 25 7 9 9 5 12 -16 12 -17 0 -27 -5 -26 -13z"/>
<path d="M5476 5026 c15 -47 35 -76 55 -76 13 0 18 4 13 13 -5 7 0 6 11 -3 11
-9 16 -10 11 -2 -4 6 -3 12 2 12 6 0 8 8 5 19 -3 12 3 24 18 35 13 8 19 19 15
23 -4 4 -11 1 -15 -6 -6 -10 -10 -10 -16 -2 -4 7 -27 11 -56 10 -45 -2 -49 -4
-43 -23z"/>
<path d="M3546 4992 c-3 -5 1 -9 9 -9 8 0 15 4 15 9 0 4 -4 8 -9 8 -6 0 -12
-4 -15 -8z"/>
<path d="M3348 4871 c4 -10 7 -11 10 -3 2 7 8 10 13 6 5 -3 9 -1 9 5 0 5 -9 9
-19 8 -12 -1 -17 -6 -13 -16z"/>
<path d="M3020 4661 c0 -5 5 -13 10 -16 6 -3 10 -2 10 4 0 5 -4 13 -10 16 -5
3 -10 2 -10 -4z"/>
<path d="M2720 4650 c0 -5 5 -10 11 -10 5 0 7 5 4 10 -3 6 -8 10 -11 10 -2 0
-4 -4 -4 -10z"/>
<path d="M4883 2681 c-10 -10 -25 -15 -32 -13 -8 3 -11 0 -7 -7 4 -6 1 -11 -6
-12 -7 0 -4 -4 7 -9 29 -13 45 -12 41 3 -1 6 -1 9 1 5 3 -5 9 -8 14 -8 6 0 7
5 4 10 -3 6 0 10 7 10 10 0 10 2 -1 9 -11 7 -10 10 5 13 17 3 17 4 3 10 -10 4
-25 -1 -36 -11z"/>
<path d="M5005 2670 c4 -6 11 -8 16 -5 14 9 11 15 -7 15 -8 0 -12 -5 -9 -10z"/>
<path d="M5047 2654 c3 -7 9 -14 14 -14 14 0 10 17 -5 23 -10 4 -13 1 -9 -9z"/>
<path d="M4958 2653 c6 -2 18 -2 25 0 6 3 1 5 -13 5 -14 0 -19 -2 -12 -5z"/>
<path d="M4806 2633 c2 -7 -1 -13 -7 -13 -6 0 -7 -4 -4 -10 3 -5 24 -10 47
-10 35 0 39 2 28 15 -7 8 -23 15 -35 15 -13 0 -25 3 -28 8 -2 4 -2 1 -1 -5z
m31 -19 c-3 -3 -12 -4 -19 -1 -8 3 -5 6 6 6 11 1 17 -2 13 -5z"/>
<path d="M4907 2633 c-36 -9 -11 -28 34 -24 49 3 54 5 44 20 -6 11 -44 13 -78
4z m56 -10 c-7 -2 -19 -2 -25 0 -7 3 -2 5 12 5 14 0 19 -2 13 -5z"/>
<path d="M5850 2636 c0 -2 7 -7 16 -10 8 -3 12 -2 9 4 -6 10 -25 14 -25 6z"/>
<path d="M4990 2600 c-13 -8 -12 -10 3 -10 9 0 17 5 17 10 0 12 -1 12 -20 0z"/>
</g>
</svg>
